<svg width="21" height="20" viewBox="0 0 21 20" fill="none" xmlns="http://www.w3.org/2000/svg">
<path fill-rule="evenodd" clip-rule="evenodd" d="M3.91666 10C3.91666 9.58579 4.25245 9.25 4.66666 9.25H16.3333C16.7475 9.25 17.0833 9.58579 17.0833 10C17.0833 10.4142 16.7475 10.75 16.3333 10.75H4.66666C4.25245 10.75 3.91666 10.4142 3.91666 10Z" fill="white"/>
<path fill-rule="evenodd" clip-rule="evenodd" d="M9.96967 3.63633C10.2626 3.34343 10.7374 3.34343 11.0303 3.63633L16.8637 9.46966C17.1566 9.76255 17.1566 10.2374 16.8637 10.5303L11.0303 16.3637C10.7374 16.6565 10.2626 16.6565 9.96967 16.3637C9.67678 16.0708 9.67678 15.5959 9.96967 15.303L15.2727 9.99999L9.96967 4.69699C9.67678 4.40409 9.67678 3.92922 9.96967 3.63633Z" fill="white"/>
</svg>
