<svg width="280" height="272" viewBox="0 0 280 272" fill="none" xmlns="http://www.w3.org/2000/svg">
<path d="M220.492 112.281C220.492 159.951 181.605 198.614 133.594 198.614C85.5831 198.614 46.6965 159.951 46.6965 112.281C46.6965 64.6101 85.5831 25.9474 133.594 25.9474C181.605 25.9474 220.492 64.6101 220.492 112.281Z" fill="#EDEDED"/>
<path d="M232.121 160.349H201.408L204.287 145.937H232.092C236.093 145.937 239.345 149.168 239.345 153.143C239.345 157.118 236.122 160.349 232.121 160.349Z" fill="#EDEDED"/>
<path d="M239.202 171.62H228.178C226.077 171.62 224.35 169.99 224.206 167.931C224.062 165.643 225.875 163.727 228.178 163.727H239.202C241.39 163.727 243.174 165.5 243.174 167.673C243.174 169.847 241.39 171.62 239.202 171.62Z" fill="#EDEDED"/>
<path d="M218.16 171.62C220.37 171.62 222.161 169.84 222.161 167.645C222.161 165.45 220.37 163.67 218.16 163.67C215.951 163.67 214.159 165.45 214.159 167.645C214.159 169.84 215.951 171.62 218.16 171.62Z" fill="#EDEDED"/>
<path d="M96.1201 38.2428H81.1238C79.0226 38.2428 77.2956 36.6128 77.1517 34.5539C77.0078 32.2661 78.8211 30.3502 81.1238 30.3502H105.043L96.1201 38.2428Z" fill="#EDEDED"/>
<path d="M71.1074 38.2166C73.3171 38.2166 75.1084 36.4369 75.1084 34.2416C75.1084 32.0463 73.3171 30.2667 71.1074 30.2667C68.8978 30.2667 67.1065 32.0463 67.1065 34.2416C67.1065 36.4369 68.8978 38.2166 71.1074 38.2166Z" fill="#EDEDED"/>
<path d="M68.5715 63.5223H43.4434C38.2912 63.5223 34.1175 59.3757 34.1175 54.2569C34.1175 49.1381 38.2912 44.9916 43.4434 44.9916H81.6105L68.5715 63.5223Z" fill="#EDEDED"/>
<path d="M172.452 61.1515H94.7361V203.277H172.452V61.1515Z" fill="#CFD0D1"/>
<path d="M157.484 203.277H94.7361V61.1515L157.484 70.3024V203.277Z" fill="white"/>
<path d="M191.278 99.6703H183.507V112.253H191.278V99.6703Z" fill="#CFD0D1"/>
<path d="M189.839 110.248H186.097V101.669H188.975L189.839 110.248Z" fill="#BFBFBF"/>
<path d="M188.973 101.669H185.519V110.248H188.973V101.669Z" fill="white"/>
<path d="M194.963 129.61H180.859C179.506 129.61 178.412 128.523 178.412 127.179C178.412 125.835 179.506 124.748 180.859 124.748H194.963C196.315 124.748 197.409 125.835 197.409 127.179C197.409 128.523 196.315 129.61 194.963 129.61Z" stroke="#1C1C1C" stroke-width="1.6076" stroke-miterlimit="10"/>
<path d="M208.346 142.909H194.242C192.889 142.909 191.795 141.822 191.795 140.478C191.795 139.134 192.889 138.048 194.242 138.048H208.346C209.699 138.048 210.793 139.134 210.793 140.478C210.793 141.822 209.699 142.909 208.346 142.909Z" stroke="#1C1C1C" stroke-width="1.6076" stroke-miterlimit="10"/>
<path d="M72.2012 129.61H86.3051C87.658 129.61 88.7517 128.523 88.7517 127.179C88.7517 125.835 87.658 124.748 86.3051 124.748H72.2012C70.8483 124.748 69.7546 125.835 69.7546 127.179C69.7546 128.523 70.8771 129.61 72.2012 129.61Z" stroke="#1C1C1C" stroke-width="1.6076" stroke-miterlimit="10"/>
<path d="M58.814 142.909H72.918C74.2708 142.909 75.3646 141.822 75.3646 140.478C75.3646 139.134 74.2708 138.048 72.918 138.048H58.814C57.4612 138.048 56.3674 139.134 56.3674 140.478C56.3674 141.822 57.49 142.909 58.814 142.909Z" stroke="#1C1C1C" stroke-width="1.6076" stroke-miterlimit="10"/>
<path d="M189.205 198.441L199.481 194.981C205.036 193.122 208.001 187.116 206.13 181.597L196.66 154.001L176.943 159.635L189.205 198.441Z" fill="#FFCBBB"/>
<path d="M185.579 187.176L204.864 178.025L203.137 173.164" fill="#F7A794"/>
<path d="M83.886 198.441L73.6102 194.981C68.055 193.122 65.0903 187.116 66.9612 181.597L76.431 154.001L96.1478 159.635L87.8293 186.001L83.886 198.441Z" fill="#FFCBBB"/>
<path d="M69.8696 173.164L87.4276 187.176L68.1426 178.025L69.8696 173.164Z" fill="#F7A794"/>
<path d="M129.133 104.417L140.906 102.616C140.906 102.616 140.215 108.364 135.322 108.878C130.428 109.365 129.133 104.417 129.133 104.417Z" fill="white"/>
<path d="M149.054 123.833L149.572 126.607C149.572 126.607 148.737 141.735 136.389 141.735C124.041 141.735 121.767 126.693 121.767 126.693L122.141 124.405L122.573 113.681C142.376 116.627 147.212 113.167 147.356 112.852L149.054 123.833Z" fill="#FFCBBB"/>
<path d="M121.508 155.861L120.183 154.917L120.068 154.832L119.924 154.717L118.831 153.945L116.499 152.287L116.355 152.201C116.326 152.172 116.269 152.144 116.24 152.115C115.895 151.886 115.463 151.743 115.031 151.743C114.456 151.743 113.937 151.943 113.563 152.315V152.315L111.232 153.974L110.253 154.66L110.224 154.689L109.879 154.946L108.67 155.804C108.066 156.204 107.691 156.862 107.691 157.634V162.753C107.691 163.954 108.67 164.955 109.908 164.955H111.376C112.585 164.955 113.592 163.983 113.592 162.753H112.124H109.908V161.123V160.551V159.808V157.606L111.721 156.319L113.275 155.203L113.592 154.975L115.06 153.945L116.528 154.975L116.845 155.203L118.399 156.319L120.183 157.606V159.808V160.551V161.123V162.753H117.967H116.499C116.499 163.954 117.478 164.955 118.716 164.955H120.183C121.392 164.955 122.4 163.983 122.4 162.753V157.634C122.4 156.891 122.054 156.262 121.508 155.861Z" fill="white"/>
<path d="M179.563 176.48C179.419 175.479 179.16 174.535 179.045 173.563C178.93 172.619 178.757 171.704 178.7 170.818C178.585 169.931 178.556 169.102 178.498 168.33C178.498 167.557 178.441 166.843 178.441 166.213C178.441 165.584 178.441 165.012 178.47 164.555C178.498 163.64 178.585 163.096 178.585 163.096C178.585 163.096 178.297 163.554 177.952 164.44C177.606 165.327 177.232 166.614 176.944 168.215C176.858 169.016 176.685 169.902 176.685 170.818C176.627 171.761 176.627 172.734 176.685 173.763C176.714 174.535 176.8 175.336 176.915 176.165C177.002 176.766 177.117 177.366 177.29 177.967C177.433 178.481 177.635 179.053 177.779 179.597C178.124 180.741 178.671 181.827 179.362 182.8C180.197 183.943 180.542 184.001 180.715 184.544L180.744 181.055C180.6 180.512 180.456 179.94 180.283 179.397C179.995 178.453 179.794 177.452 179.563 176.48Z" fill="#434343"/>
<path d="M206.879 165.729C204.864 163.155 203.137 163.441 203.137 163.441L188.659 141.479C182.067 132.471 172.194 126.351 161.142 124.464L149.024 122.548L148.822 124.807C148.275 131.27 143.699 136.274 137.165 136.274H134.92V199.444C138.518 199.444 142.547 199.473 147.297 199.759C159.99 200.502 168.395 195.04 179.16 189.95L179.246 183.173L182.413 187.748C191.048 184.602 201.669 175.452 205.44 171.677C206.303 170.876 206.591 170.018 206.591 170.018C206.591 170.018 208.894 168.302 206.879 165.729Z" fill="#1C1C1C"/>
<path d="M64.4009 165.729C66.4158 163.155 68.1428 163.441 68.1428 163.441L82.6209 141.479C89.2124 132.471 99.0852 126.351 110.138 124.464L122.256 122.548L122.457 124.807C123.004 131.27 127.581 136.274 134.115 136.274H136.36V199.444C132.762 199.444 128.732 199.473 123.983 199.759C111.289 200.502 102.597 194.754 91.8317 189.664L92.0332 183.173L88.867 187.748C80.2319 184.602 69.6107 175.452 65.8401 171.677C64.9766 170.876 64.6887 170.018 64.6887 170.018C64.6887 170.018 62.3861 168.302 64.4009 165.729Z" fill="#1C1C1C"/>
<path d="M174.93 161.154C173.433 160.925 174.354 164.585 174.066 166.873C173.577 170.733 170.67 178.026 160.538 180.885C145.283 185.175 126.573 178.598 126.573 178.598C126.573 178.598 132.618 184.031 145.858 184.889C159.099 185.747 151.039 192.324 151.039 192.324C151.039 192.324 163.416 186.605 164.28 194.612C165.143 202.619 175.505 196.042 175.505 196.042L178.672 191.752L176.657 172.592L174.93 161.154Z" fill="#262828"/>
<path d="M121.508 156.146L120.183 155.203L120.068 155.117L119.924 155.002L118.831 154.23L116.499 152.572L116.355 152.486C116.326 152.457 116.269 152.429 116.24 152.4C115.895 152.171 115.463 152.028 115.031 152.028C114.456 152.028 113.937 152.229 113.563 152.6V152.6L111.232 154.259L110.253 154.945L110.224 154.974L109.879 155.231L108.67 156.089C108.066 156.489 107.691 157.147 107.691 157.919V163.038C107.691 164.239 108.67 165.24 109.908 165.24H111.376C112.585 165.24 113.592 164.268 113.592 163.038H112.124H109.908V161.408V160.836V160.093V157.891L111.721 156.604L113.275 155.489L113.592 155.26L115.06 154.23L116.528 155.26L116.845 155.489L118.399 156.604L120.183 157.891V160.093V160.836V161.408V163.038H117.967H116.499C116.499 164.239 117.478 165.24 118.716 165.24H120.183C121.392 165.24 122.4 164.268 122.4 163.038V157.919C122.4 157.176 122.054 156.547 121.508 156.146Z" fill="white"/>
<path d="M201.409 160.868C201.409 160.868 202.272 164.014 198.243 166.016C194.213 168.017 190.471 168.303 190.471 168.303C190.471 168.303 193.35 168.875 195.94 168.589C198.531 168.303 202.848 164.872 202.848 164.872C202.848 164.872 203.999 164.014 204.863 165.73C205.18 166.33 205.381 166.988 205.496 167.56C205.727 168.618 205.525 169.762 204.949 170.677L202.848 174.023C202.848 174.023 207.425 169.218 207.454 168.303C207.482 167.388 207.425 166.645 207.022 165.901C206.59 165.158 205.41 164.185 204.863 163.899C203.999 163.442 203.136 163.442 203.136 163.442L201.841 161.469L201.409 160.868Z" fill="#262828"/>
<path d="M70.1855 160.868C70.1855 160.868 69.322 164.014 73.3517 166.016C77.3815 168.017 81.1233 168.303 81.1233 168.303C81.1233 168.303 78.245 168.875 75.6544 168.589C73.0639 168.303 68.7464 164.872 68.7464 164.872C68.7464 164.872 67.595 164.014 66.7315 165.73C66.4149 166.33 66.2134 166.988 66.0983 167.56C65.868 168.618 66.0695 169.762 66.6452 170.677L68.7464 174.023C68.7464 174.023 64.1698 169.218 64.141 168.303C64.1122 167.388 64.1698 166.645 64.5727 165.901C65.0045 165.158 66.1846 164.185 66.7315 163.899C67.595 163.442 68.4585 163.442 68.4585 163.442L69.7538 161.469L70.1855 160.868Z" fill="#262828"/>
<path d="M180.684 200.614L175.791 218.916L197.119 207.592C206.013 204.474 210.705 194.466 207.539 185.629L206.301 182.14L180.684 200.614Z" fill="#FFCBBB"/>
<path d="M87.4255 195.466L96.3772 214.483L75.9409 207.305C67.0467 204.188 62.355 194.466 65.5212 185.629L66.7589 182.14L87.4255 195.466Z" fill="#FFCBBB"/>
<path d="M180.714 187.691H90.4769V219.005H180.714V187.691Z" fill="#B58D69"/>
<path d="M100.925 182.198C101.53 182.198 170.236 182.198 170.236 182.198L180.685 187.689H90.4769L100.925 182.198Z" fill="#C19774"/>
<path d="M142.461 187.834H128.127L129.912 181.886H140.677L142.461 187.834Z" fill="#161515"/>
<path d="M182.413 198.326C181.808 198.326 181.233 198.384 180.686 198.527V214.169C181.233 214.283 181.808 214.369 182.413 214.369C186.874 214.369 190.472 210.795 190.472 206.362C190.472 201.901 186.874 198.326 182.413 198.326Z" fill="#F7A794"/>
<path d="M180.772 193.751C179.937 193.579 179.102 194.123 178.929 194.952C178.613 196.325 178.498 198.326 179.994 199.413C182.383 201.186 185.089 199.928 185.981 201.186C187.766 203.76 183.247 211.338 181.088 214.684C180.426 215.713 179.304 216.371 178.095 216.457L167.358 217.315C166.207 217.4 165.315 218.315 165.228 219.459C165.142 220.803 166.207 221.919 167.56 221.919H179.764C181.606 221.919 183.362 221.089 184.571 219.688C184.571 219.688 192.832 211.509 194.357 208.049C195.825 204.703 194.818 199.813 193.149 197.869C191.767 196.267 187.449 195.066 185.377 194.609C184.398 194.437 182.211 194.008 180.772 193.751Z" fill="#FFCBBB"/>
<path d="M89.1525 198.326C89.757 198.326 90.3327 198.384 90.8796 198.527V214.169C90.3327 214.283 89.757 214.369 89.1525 214.369C84.6911 214.369 81.0931 210.795 81.0931 206.362C81.0931 201.901 84.7198 198.326 89.1525 198.326Z" fill="#F7A794"/>
<path d="M91.7743 193.751C92.609 193.579 93.4437 194.123 93.6164 194.952C93.933 196.325 94.0482 198.326 92.5514 199.413C90.1624 201.186 87.4567 199.928 86.5644 201.186C84.7799 203.76 89.2989 211.338 91.4576 214.684C92.1197 215.713 93.2422 216.371 94.4511 216.457L105.187 217.315C106.339 217.4 107.231 218.315 107.317 219.459C107.404 220.803 106.339 221.919 104.986 221.919H92.7817C90.9395 221.919 89.1837 221.089 87.9748 219.688C87.9748 219.688 79.7139 211.509 78.1884 208.049C76.7204 204.703 77.7279 199.813 79.3973 197.869C80.7789 196.267 85.0965 195.066 87.1689 194.609C88.1475 194.437 90.3063 194.008 91.7743 193.751Z" fill="#FFCBBB"/>
<path d="M154.205 74.0745C154.205 86.8 143.843 97.0948 131.034 97.0948C118.225 97.0948 107.863 86.8 107.863 74.0745C107.863 61.3489 118.369 61.063 131.178 61.063C143.987 61.063 154.205 61.3489 154.205 74.0745Z" fill="#434343"/>
<path d="M155.098 96.5515C155.098 96.5515 154.695 106.703 147.326 112.852C144.304 115.368 140.159 117.198 134.374 117.398C129.365 117.227 125.566 115.826 122.687 113.824C114.139 107.847 113.649 96.5515 113.649 96.5515L114.34 81.1093L114.686 71.6438C124.242 72.2443 129.049 69.213 137.194 64.2086C140.447 62.2068 151.385 64.8377 151.586 61.063C154.896 66.7823 155.616 73.0736 155.904 79.6508L154.292 83.3684C154.292 83.3684 157.113 81.3666 159.07 83.3398C159.185 83.4542 159.3 83.5686 159.387 83.7116C161.315 86.2853 161.488 94.7213 155.098 96.5515Z" fill="#FFCBBB"/>
<path d="M115.144 82.7977C115.144 82.7977 111.747 80.7959 109.79 82.7691C109.675 82.8835 109.56 82.9979 109.473 83.1409C107.574 85.7146 108.264 94.1506 114.654 95.9808" fill="#FFCBBB"/>
<path d="M114.195 73.6471C123.406 75.0769 129.163 67.9277 139.237 70.2154C144.792 71.4737 151.326 71.6453 153.629 66.7838C150.808 72.732 154.061 74.3334 154.377 80.9106L154.636 83.3985C154.636 83.3985 157.457 81.6827 159.415 83.6559C161.717 76.5925 162.61 68.3853 159.443 61.665C157.169 56.8322 152.909 52.8286 147.901 51.0842C145.857 50.3693 143.699 50.0262 141.511 50.1692C138.086 50.3693 134.833 51.6562 131.696 53.086C128.559 54.4873 125.479 56.0315 122.14 56.8322C118.801 57.6329 115.117 57.5757 112.123 55.8885C110.77 55.145 109.36 54.0297 107.863 54.3729C106.222 54.7732 105.503 56.6892 105.301 58.3478C105.273 58.548 105.244 58.7768 105.244 58.9769C104.726 64.7535 107.834 70.244 112.958 73.0179L114.195 73.6471Z" fill="#434343"/>
<path d="M134.374 117.399C140.159 117.199 144.304 115.369 147.326 112.852C147.183 113.138 138.375 127.408 122.544 114.253L122.688 113.824C125.566 115.826 129.366 117.227 134.374 117.399Z" fill="#F7A794"/>
<path d="M147.871 51.0547C141.251 43.9055 133.191 53.9144 122.253 51.9126C120.354 51.5694 116.727 49.5677 116.497 52.1986C116.209 55.6302 126.859 60.7776 129.737 58.7758C132.616 56.774 147.871 51.0547 147.871 51.0547Z" fill="#434343"/>
<path d="M133.624 97.6694C131.868 97.6694 130.544 96.354 130.976 95.0099L133.768 85.9448L136.301 95.0385C136.675 96.3826 135.38 97.6694 133.624 97.6694Z" fill="#F7A794"/>
<path d="M125.591 87.0006C125.591 88.6878 124.469 90.0604 123.087 90.0604C121.706 90.0604 120.583 88.6878 120.583 87.0006C120.583 85.3134 121.706 83.9407 123.087 83.9407C124.469 83.9407 125.591 85.3134 125.591 87.0006Z" fill="#434343"/>
<path d="M147.154 87.2849C147.154 88.9721 146.031 90.3447 144.649 90.3447C143.268 90.3447 142.145 88.9721 142.145 87.2849C142.145 85.5977 143.268 84.225 144.649 84.225C146.031 84.225 147.154 85.5977 147.154 87.2849Z" fill="#434343"/>
<path d="M150.03 79.3934C148.073 78.8501 146.029 78.5927 144.014 78.6213C143.381 78.6213 142.748 79.1932 142.777 79.8509C142.805 80.5087 143.323 81.0806 144.014 81.0806C144.935 81.0806 145.856 81.1378 146.778 81.2236C146.835 81.2236 146.921 81.2522 146.95 81.2522C147.065 81.2808 147.152 81.2808 147.267 81.3094C147.526 81.338 147.756 81.3952 148.015 81.4524C148.476 81.5382 148.936 81.6525 149.397 81.7669C150.03 81.9385 150.75 81.5667 150.922 80.909C151.037 80.2799 150.692 79.5936 150.03 79.3934Z" fill="#434343"/>
<path d="M118.339 79.3934C120.296 78.8501 122.34 78.5927 124.355 78.6213C124.988 78.6213 125.621 79.1932 125.593 79.8509C125.564 80.5087 125.046 81.0806 124.355 81.0806C123.434 81.0806 122.513 81.1378 121.592 81.2236C121.534 81.2236 121.448 81.2522 121.419 81.2522C121.304 81.2808 121.218 81.2808 121.102 81.3094C120.843 81.338 120.613 81.3952 120.354 81.4524C119.894 81.5382 119.433 81.6525 118.972 81.7669C118.339 81.9385 117.62 81.5667 117.447 80.909C117.332 80.2799 117.677 79.5936 118.339 79.3934Z" fill="#434343"/>
<path d="M129.133 104.417L140.906 102.616C140.906 102.616 140.215 108.364 135.322 108.878C130.428 109.365 129.133 104.417 129.133 104.417Z" fill="white"/>
<path d="M238.223 55.4581C238.223 70.9003 225.616 83.4257 210.073 83.4257C204.863 83.4257 199.97 82.0245 195.796 79.5651C193.263 80.4516 190.558 80.9092 187.881 80.852C182.7 80.7376 177.547 78.793 173.633 75.39C177.087 75.5044 180.57 75.2184 183.851 74.1604C185.175 73.7314 186.47 73.1309 187.679 72.416C184.053 67.7261 181.894 61.8352 181.894 55.4581C181.894 40.0159 194.501 27.4905 210.044 27.4905C225.616 27.4905 238.223 40.0159 238.223 55.4581Z" fill="#FBC02D"/>
<path d="M221.64 48.1956L217.495 43.0482L216.459 42.7336L217.236 48.1956H221.64Z" fill="white"/>
<path d="M217.38 44.3324C217.409 43.9606 217.524 43.6175 217.697 43.2743L217.524 43.0455L216.459 42.7024L217.236 48.1643H221.64C221.525 48.1643 221.41 48.1643 221.324 48.1357C218.935 47.9642 217.179 46.2484 217.38 44.3324Z" fill="#FBC02D"/>
<path d="M212.919 47.2241L220.95 48.1392L220.576 49.0828L222.073 50.4555L221.612 50.8844" fill="white"/>
<path d="M213.41 41.8752L229.241 43.8197L232.609 45.364L238.078 49.7107L236.638 50.3112L228.262 46.3935L222.995 45.3926L211.913 42.5329L212.403 42.1039C212.69 41.9324 213.036 41.818 213.41 41.8752Z" fill="white"/>
<path d="M233.56 45.4232C233.617 45.7378 233.445 46.0523 233.157 46.2239C232.581 46.5671 231.228 46.853 230.71 46.8244C229.962 46.7958 229.962 46.1381 229.962 46.1381L233.07 44.4223C233.07 44.4223 233.445 44.9942 233.56 45.366C233.531 45.366 233.56 45.3946 233.56 45.4232Z" fill="#EDEDED"/>
<path d="M233.531 45.337C233.531 45.3656 233.531 45.3941 233.56 45.4227C233.588 45.6228 233.531 45.8229 233.416 45.9944C233.243 45.9372 233.042 45.8229 232.927 45.68C232.61 45.337 232.581 44.8796 232.84 44.5652L233.099 44.4223C233.07 44.4223 233.444 44.994 233.531 45.337Z" fill="#1C1C1C"/>
<path d="M217.754 49.8531C216.805 49.7387 216.517 48.652 217.294 48.1658C218.186 47.5939 219.337 46.9648 220.431 46.5072C222.878 45.4778 235.946 40.1016 235.946 40.1016C235.946 40.1016 237.529 39.501 238.45 39.8156C239.371 40.1302 240.177 40.3304 240.407 40.7307C240.637 41.1311 239.86 42.0462 239.112 42.5895C238.363 43.1328 224.029 48.6806 224.029 48.6806C224.029 48.6806 221.467 49.5671 219.222 49.8816C218.877 49.8816 218.1 49.8817 217.754 49.8531Z" fill="#C49000"/>
<path d="M239.718 40.2446C239.373 40.1016 238.941 39.9872 238.452 39.8156C237.531 39.501 235.948 40.1016 235.948 40.1016C235.948 40.1016 222.88 45.5064 220.433 46.5072C220.088 46.6502 219.771 46.7932 219.426 46.9648C219.311 47.0506 218.274 47.6797 218.793 47.7083C219.282 47.7369 223.427 46.2785 224.204 46.0211C224.29 45.9925 224.377 45.9639 224.463 45.9639L225.067 45.9353C225.211 45.9353 225.355 45.9067 225.47 45.8495L228.291 44.7628C228.55 44.677 228.752 44.4769 228.896 44.2767C228.982 44.1337 229.126 43.9907 229.299 43.9335L234.969 41.8174C235.084 41.7602 235.228 41.703 235.314 41.6172L236.322 40.8165C236.552 40.6163 236.84 40.5019 237.156 40.4733C237.962 40.3303 239.402 40.1588 239.718 40.2446Z" fill="white"/>
<path d="M239.66 40.218C239.372 40.1036 239.084 40.0178 238.969 39.9892C238.652 39.9034 238.192 39.789 237.616 39.9892C237.098 40.1608 236.436 40.7613 236.436 40.7613C236.436 40.7613 236.58 40.7327 236.781 40.7041C237.616 40.3896 238.681 40.1608 239.66 40.218Z" fill="#1C1C1C"/>
<path d="M216.604 48.879L212.085 47.392L212.2 47.3348C212.402 47.2204 212.661 47.1918 212.891 47.2204L219.857 47.9353L217.122 49.0506" fill="white"/>
<path d="M228.465 43.4768C228.149 43.2194 227.717 43.1623 227.314 43.3052C226.566 43.5912 225.299 44.3061 224.983 44.7637C224.954 44.7923 224.954 44.8209 224.925 44.8209C224.58 45.4214 225.184 45.9647 225.875 45.7073L228.58 44.7637C228.926 44.6493 229.07 44.2775 228.868 43.9916C228.753 43.82 228.609 43.6198 228.494 43.5054C228.494 43.534 228.465 43.5054 228.465 43.4768Z" fill="#1C1C1C"/>
<path d="M228.667 44.619C227.947 44.5618 227.429 44.047 227.487 43.4751C227.487 43.3893 227.516 43.3321 227.544 43.2463C227.458 43.2463 227.372 43.2749 227.314 43.3035C226.566 43.5895 225.299 44.3044 224.983 44.762C224.954 44.7906 224.954 44.8192 224.925 44.8192C224.58 45.4197 225.184 45.963 225.875 45.7057L228.581 44.762C228.696 44.7334 228.753 44.6762 228.84 44.5904C228.782 44.619 228.724 44.619 228.667 44.619Z" fill="#EDEDED"/>
<path d="M230.134 42.8734C230.134 42.902 230.163 42.9305 230.163 42.9591C230.191 42.9877 230.22 43.0163 230.249 43.0449C230.278 43.0735 230.306 43.102 230.364 43.102C230.393 43.102 230.45 43.1306 230.479 43.102C230.508 43.102 230.565 43.0735 230.594 43.0735C230.623 43.0449 230.652 43.0449 230.652 43.0163C230.68 42.9877 230.709 42.9305 230.738 42.8734C230.738 42.8448 230.738 42.8162 230.738 42.7876C230.738 42.7305 230.709 42.6733 230.68 42.6161C230.68 42.5875 230.652 42.559 230.652 42.5304C230.623 42.5018 230.594 42.4732 230.565 42.4446C230.537 42.416 230.508 42.3875 230.45 42.3875C230.421 42.3875 230.364 42.3589 230.335 42.3875C230.306 42.3875 230.249 42.416 230.22 42.416C230.191 42.4446 230.163 42.4446 230.163 42.4732C230.134 42.5018 230.105 42.559 230.076 42.6161C230.076 42.6447 230.076 42.6733 230.076 42.7019C230.105 42.759 230.105 42.8162 230.134 42.8734Z" fill="#434343"/>
<path d="M229.56 43.0755C229.56 43.1041 229.589 43.1327 229.589 43.1613C229.618 43.1899 229.646 43.2184 229.675 43.247C229.704 43.2756 229.733 43.3042 229.79 43.3042C229.819 43.3042 229.877 43.3328 229.905 43.3042C229.934 43.3042 229.992 43.2756 230.02 43.2756C230.049 43.247 230.078 43.247 230.078 43.2184C230.107 43.1899 230.135 43.1327 230.164 43.0755C230.164 43.0469 230.164 43.0184 230.164 42.9898C230.164 42.9326 230.135 42.8754 230.107 42.8183C230.107 42.7897 230.078 42.7611 230.078 42.7325C230.049 42.7039 230.02 42.6754 229.992 42.6468C229.963 42.6182 229.934 42.5896 229.877 42.5896C229.848 42.5896 229.79 42.561 229.761 42.5896C229.733 42.5896 229.675 42.6182 229.646 42.6182C229.618 42.6468 229.589 42.6468 229.589 42.6754C229.56 42.7039 229.531 42.7611 229.503 42.8183C229.503 42.8469 229.503 42.8754 229.503 42.904C229.531 42.9612 229.531 43.0184 229.56 43.0755Z" fill="#434343"/>
<path d="M228.981 43.3918C228.981 43.4204 229.01 43.449 229.01 43.4775C229.039 43.5061 229.068 43.5347 229.096 43.5633C229.125 43.5919 229.154 43.6205 229.212 43.6205C229.24 43.6205 229.298 43.649 229.327 43.6205C229.355 43.6205 229.413 43.5919 229.442 43.5919C229.47 43.5633 229.499 43.5633 229.499 43.5347C229.528 43.5061 229.557 43.449 229.586 43.3918C229.586 43.3632 229.586 43.3346 229.586 43.306C229.586 43.2489 229.557 43.1917 229.528 43.1345C229.528 43.1059 229.499 43.0774 229.499 43.0488C229.47 43.0202 229.442 42.9916 229.413 42.963C229.384 42.9344 229.355 42.9059 229.298 42.9059C229.269 42.9059 229.212 42.8773 229.183 42.9059C229.154 42.9059 229.096 42.9344 229.068 42.9344C229.039 42.963 229.01 42.963 229.01 42.9916C228.981 43.0202 228.953 43.0774 228.924 43.1345C228.924 43.1631 228.924 43.1917 228.924 43.2203C228.924 43.2775 228.953 43.3346 228.981 43.3918Z" fill="#434343"/>
<path d="M230.739 42.5888C230.739 42.6174 230.767 42.646 230.767 42.6746C230.796 42.7032 230.825 42.7317 230.854 42.7603C230.883 42.7889 230.911 42.8175 230.969 42.8175C230.998 42.8175 231.055 42.8461 231.084 42.8175C231.113 42.8175 231.17 42.7889 231.199 42.7889C231.228 42.7603 231.257 42.7603 231.257 42.7317C231.285 42.7032 231.314 42.646 231.343 42.5888C231.343 42.5602 231.343 42.5317 231.343 42.5031C231.343 42.4459 231.314 42.3887 231.285 42.3316C231.285 42.303 231.257 42.2744 231.257 42.2458C231.228 42.2172 231.199 42.1887 231.17 42.1601C231.141 42.1315 231.113 42.1029 231.055 42.1029C231.026 42.1029 230.969 42.0743 230.94 42.1029C230.911 42.1029 230.854 42.1315 230.825 42.1315C230.796 42.1601 230.767 42.1601 230.767 42.1887C230.739 42.2172 230.71 42.2744 230.681 42.3316C230.681 42.3602 230.681 42.3887 230.681 42.4173C230.71 42.5031 230.71 42.5602 230.739 42.5888Z" fill="#434343"/>
<path d="M232.552 41.7303C232.581 41.7589 232.581 41.816 232.61 41.8446C232.61 41.8732 232.639 41.9304 232.668 41.959C232.696 41.9875 232.725 42.0161 232.754 42.0447C232.783 42.0733 232.84 42.0733 232.869 42.0733C232.898 42.0733 232.955 42.0733 232.984 42.0733C233.013 42.0733 233.042 42.0447 233.07 42.0447C233.128 42.0161 233.157 41.9875 233.185 41.9304C233.185 41.9018 233.214 41.8732 233.214 41.8446C233.243 41.7874 233.243 41.7303 233.214 41.6731C233.185 41.6445 233.185 41.5874 233.157 41.5588C233.157 41.5302 233.128 41.473 233.099 41.4444C233.07 41.4159 233.042 41.3873 233.013 41.3587C232.984 41.3301 232.926 41.3301 232.898 41.3301C232.869 41.3301 232.811 41.3301 232.783 41.3301C232.754 41.3301 232.725 41.3587 232.696 41.3587C232.639 41.3873 232.61 41.4159 232.581 41.473C232.581 41.5016 232.552 41.5302 232.552 41.5588C232.552 41.6159 232.552 41.6731 232.552 41.7303Z" fill="#434343"/>
<path d="M222.994 45.793C223.023 45.8216 223.023 45.8787 223.051 45.9073C223.051 45.9359 223.08 45.9645 223.109 45.9645C223.138 45.9931 223.167 45.9931 223.195 45.9931C223.224 45.9931 223.253 45.9931 223.282 45.9931C223.31 45.9931 223.339 45.9931 223.368 45.9645C223.397 45.9645 223.397 45.9359 223.425 45.9359C223.454 45.9073 223.483 45.8787 223.483 45.8501C223.483 45.8216 223.483 45.8216 223.483 45.793C223.483 45.7644 223.483 45.7072 223.454 45.6786C223.425 45.6501 223.425 45.5929 223.397 45.5643C223.397 45.5357 223.368 45.5071 223.339 45.5071C223.31 45.4785 223.282 45.4785 223.253 45.4785C223.224 45.4785 223.195 45.4785 223.167 45.4785C223.138 45.4785 223.109 45.4785 223.08 45.5071C223.051 45.5071 223.051 45.5357 223.023 45.5357C222.994 45.5643 222.965 45.5929 222.965 45.6215C222.965 45.6501 222.965 45.6501 222.965 45.6786C222.965 45.7072 222.994 45.7358 222.994 45.793Z" fill="#434343"/>
<path d="M222.421 45.9639C222.45 45.9924 222.45 46.0496 222.478 46.0782C222.478 46.1068 222.507 46.1354 222.536 46.1354C222.565 46.1639 222.594 46.1639 222.622 46.1639C222.651 46.1639 222.68 46.1639 222.709 46.1639C222.737 46.1639 222.766 46.1639 222.795 46.1354C222.824 46.1354 222.824 46.1068 222.852 46.1068C222.881 46.0782 222.91 46.0496 222.91 46.021C222.91 45.9924 222.91 45.9924 222.91 45.9639C222.91 45.9353 222.91 45.8781 222.881 45.8495C222.852 45.8209 222.852 45.7638 222.824 45.7352C222.824 45.7066 222.795 45.678 222.766 45.678C222.737 45.6494 222.709 45.6494 222.68 45.6494C222.651 45.6494 222.622 45.6494 222.594 45.6494C222.565 45.6494 222.536 45.6494 222.507 45.678C222.478 45.678 222.478 45.7066 222.45 45.7066C222.421 45.7352 222.392 45.7638 222.392 45.7924C222.392 45.8209 222.392 45.8209 222.392 45.8495C222.392 45.9067 222.421 45.9353 222.421 45.9639Z" fill="#434343"/>
<path d="M221.701 46.2799C221.73 46.3085 221.73 46.3656 221.759 46.3942C221.759 46.4228 221.787 46.4514 221.816 46.4514C221.845 46.48 221.874 46.48 221.903 46.48C221.931 46.48 221.96 46.48 221.989 46.48C222.018 46.48 222.046 46.48 222.075 46.4514C222.104 46.4514 222.104 46.4228 222.133 46.4228C222.161 46.3942 222.19 46.3656 222.19 46.337C222.19 46.3085 222.19 46.3085 222.19 46.2799C222.19 46.2513 222.19 46.1941 222.161 46.1655C222.133 46.137 222.133 46.0798 222.104 46.0512C222.104 46.0226 222.075 45.994 222.046 45.994C222.018 45.9655 221.989 45.9655 221.96 45.9655C221.931 45.9655 221.903 45.9655 221.874 45.9655C221.845 45.9655 221.816 45.9655 221.787 45.994C221.759 45.994 221.759 46.0226 221.73 46.0226C221.701 46.0512 221.672 46.0798 221.672 46.1084C221.672 46.137 221.672 46.137 221.672 46.1655C221.672 46.2227 221.701 46.2513 221.701 46.2799Z" fill="#434343"/>
<path d="M221.04 46.5078C221.068 46.5364 221.068 46.5936 221.097 46.6221C221.097 46.6507 221.126 46.6793 221.155 46.6793C221.184 46.7079 221.212 46.7079 221.241 46.7079C221.27 46.7079 221.299 46.7079 221.327 46.7079C221.356 46.7079 221.385 46.7079 221.414 46.6793C221.442 46.6793 221.442 46.6507 221.471 46.6507C221.5 46.6221 221.529 46.5936 221.529 46.565C221.529 46.5364 221.529 46.5364 221.529 46.5078C221.529 46.4792 221.529 46.4221 221.5 46.3935C221.471 46.3649 221.471 46.3077 221.442 46.2791C221.442 46.2506 221.414 46.222 221.385 46.222C221.356 46.1934 221.327 46.1934 221.299 46.1934C221.27 46.1934 221.241 46.1934 221.212 46.1934C221.184 46.1934 221.155 46.1934 221.126 46.222C221.097 46.222 221.097 46.2506 221.068 46.2506C221.04 46.2791 221.011 46.3077 221.011 46.3363C221.011 46.3649 221.011 46.3649 221.011 46.3935C221.011 46.4506 221.011 46.4792 221.04 46.5078Z" fill="#434343"/>
<path d="M231.401 42.3609C231.401 42.3895 231.429 42.4181 231.429 42.4467C231.458 42.4752 231.487 42.5038 231.516 42.5324C231.544 42.561 231.573 42.5896 231.631 42.5896C231.66 42.5896 231.717 42.6182 231.746 42.5896C231.775 42.5896 231.832 42.561 231.861 42.561C231.89 42.5324 231.918 42.5324 231.918 42.5038C231.947 42.4752 231.976 42.4181 232.005 42.3609C232.005 42.3323 232.005 42.3037 232.005 42.2752C232.005 42.218 231.976 42.1608 231.947 42.1037C231.947 42.0751 231.918 42.0465 231.918 42.0179C231.89 41.9893 231.861 41.9607 231.832 41.9321C231.803 41.9036 231.775 41.875 231.717 41.875C231.688 41.875 231.631 41.8464 231.602 41.875C231.573 41.875 231.516 41.9036 231.487 41.9036C231.458 41.9321 231.429 41.9321 231.429 41.9607C231.401 41.9893 231.372 42.0465 231.343 42.1037C231.343 42.1322 231.343 42.1608 231.343 42.1894C231.372 42.2752 231.372 42.3323 231.401 42.3609Z" fill="#434343"/>
<path d="M231.974 42.0449C231.974 42.0735 232.003 42.1021 232.003 42.1306C232.032 42.1592 232.06 42.1878 232.089 42.2164C232.118 42.245 232.147 42.2736 232.204 42.2736C232.233 42.2736 232.291 42.3022 232.319 42.2736C232.348 42.2736 232.406 42.245 232.434 42.245C232.463 42.2164 232.492 42.2164 232.492 42.1878C232.521 42.1592 232.549 42.1021 232.578 42.0449C232.578 42.0163 232.578 41.9877 232.578 41.9591C232.578 41.902 232.549 41.8448 232.521 41.7876C232.521 41.7591 232.492 41.7305 232.492 41.7019C232.463 41.6733 232.434 41.6447 232.406 41.6161C232.377 41.5876 232.348 41.559 232.291 41.559C232.262 41.559 232.204 41.5304 232.175 41.559C232.147 41.559 232.089 41.5876 232.06 41.5876C232.032 41.6161 232.003 41.6161 232.003 41.6447C231.974 41.6733 231.945 41.7305 231.917 41.7876C231.917 41.8162 231.917 41.8448 231.917 41.8734C231.945 41.9591 231.945 41.9877 231.974 42.0449Z" fill="#434343"/>
<path d="M215.657 31.6391H202.79V33.2405H215.657V31.6391Z" fill="#1C1C1C"/>
<path d="M220.809 32.8975H197.322V73.7907H220.809V32.8975Z" fill="#434343"/>
<path d="M204.404 36.4143H201.18V39.6171H204.404V36.4143Z" fill="white"/>
<path d="M208.578 36.4143H205.354V39.6171H208.578V36.4143Z" fill="white"/>
<path d="M212.78 36.4143H209.556V39.6171H212.78V36.4143Z" fill="white"/>
<path d="M216.952 36.4143H213.728V39.6171H216.952V36.4143Z" fill="white"/>
<path d="M204.404 40.9052H201.18V44.108H204.404V40.9052Z" fill="white"/>
<path d="M208.578 40.9052H205.354V44.108H208.578V40.9052Z" fill="white"/>
<path d="M212.78 40.9052H209.556V44.108H212.78V40.9052Z" fill="white"/>
<path d="M216.952 40.9052H213.728V44.108H216.952V40.9052Z" fill="white"/>
<path d="M204.404 45.3641H201.18V48.567H204.404V45.3641Z" fill="white"/>
<path d="M208.578 45.3641H205.354V48.567H208.578V45.3641Z" fill="white"/>
<path d="M212.78 45.3641H209.556V48.567H212.78V45.3641Z" fill="white"/>
<path d="M216.952 45.3641H213.728V48.567H216.952V45.3641Z" fill="white"/>
<path d="M204.404 49.8548H201.18V53.0576H204.404V49.8548Z" fill="white"/>
<path d="M208.578 49.8548H205.354V53.0576H208.578V49.8548Z" fill="white"/>
<path d="M212.78 49.8548H209.556V53.0576H212.78V49.8548Z" fill="white"/>
<path d="M216.952 49.8548H213.728V53.0576H216.952V49.8548Z" fill="white"/>
<path d="M204.404 54.3145H201.18V57.5173H204.404V54.3145Z" fill="white"/>
<path d="M208.578 54.3145H205.354V57.5173H208.578V54.3145Z" fill="white"/>
<path d="M212.78 54.3145H209.556V57.5173H212.78V54.3145Z" fill="white"/>
<path d="M216.952 54.3145H213.728V57.5173H216.952V54.3145Z" fill="white"/>
<path d="M204.404 58.7732H201.18V61.976H204.404V58.7732Z" fill="white"/>
<path d="M208.578 58.7732H205.354V61.976H208.578V58.7732Z" fill="white"/>
<path d="M212.78 58.7732H209.556V61.976H212.78V58.7732Z" fill="white"/>
<path d="M216.952 58.7732H213.728V61.976H216.952V58.7732Z" fill="white"/>
<path d="M205.67 65.8125H201.18V70.9314H205.67V65.8125Z" fill="white"/>
<path d="M216.607 65.8125H212.117V70.9314H216.607V65.8125Z" fill="white"/>
<path d="M211.482 65.8125H206.33V70.9314H211.482V65.8125Z" fill="white"/>
<path d="M216.924 63.8963H201.18V65.1832H216.924V63.8963Z" fill="#1C1C1C"/>
<path d="M217.268 70.93H200.861V71.9023H217.268V70.93Z" fill="#EDEDED"/>
<path d="M217.904 71.9034H199.886V72.8757H217.904V71.9034Z" fill="#D8D8D8"/>
<path d="M219.199 72.8458H198.619V73.8181H219.199V72.8458Z" fill="#C9C9C9"/>
<path d="M228.207 51.0549C228.178 50.5402 227.747 50.1112 227.229 50.0826C226.941 49.3963 226.279 48.9388 225.473 48.9388C225.214 48.9388 224.955 48.996 224.724 49.1104C224.638 49.0818 224.523 49.0532 224.437 49.0532C224.034 48.1095 223.084 47.4518 221.99 47.4518C220.637 47.4518 219.543 48.4526 219.371 49.7681C219.284 49.7681 219.198 49.7395 219.112 49.7395C218.104 49.7395 217.269 50.5688 217.269 51.5697C217.269 52.3704 217.788 53.0281 218.507 53.2855C218.651 53.3427 218.795 53.3999 218.939 53.3999H225.732C225.761 53.3999 225.761 53.3999 225.789 53.3999C225.818 53.3999 225.818 53.3999 225.847 53.3999C225.876 53.3999 225.933 53.3999 225.962 53.3713C226.106 53.3427 226.25 53.2855 226.394 53.1997H228.178C228.207 53.1997 228.207 53.1997 228.236 53.1997H228.265C228.294 53.1997 228.322 53.1997 228.351 53.1997C228.841 53.1139 229.215 52.6849 229.215 52.1702C229.215 51.5697 228.783 51.1121 228.207 51.0549Z" fill="white"/>
<path d="M245.133 62.7502L246.025 61.1202L246.917 62.7502C247.148 63.1506 247.493 63.4938 247.896 63.7225L249.537 64.609L247.896 65.4955C247.493 65.7243 247.148 66.0674 246.917 66.4678L246.025 68.0978L245.133 66.4678C244.903 66.0674 244.557 65.7243 244.154 65.4955L242.514 64.609L244.154 63.7225C244.586 63.4938 244.903 63.1506 245.133 62.7502Z" fill="#FBC02D"/>
<path d="M248.673 44.5345L249.565 42.9045L250.458 44.5345C250.688 44.9348 251.033 45.278 251.436 45.5068L253.077 46.3933L251.436 47.2798C251.033 47.5086 250.688 47.8517 250.458 48.2521L249.565 49.8821L248.673 48.2521C248.443 47.8517 248.097 47.5086 247.694 47.2798L246.054 46.3933L247.694 45.5068C248.097 45.278 248.443 44.9348 248.673 44.5345Z" fill="#FBC02D"/>
<path d="M38.319 100.271C38.319 114.198 49.6886 125.494 63.7062 125.494C68.3979 125.494 72.8018 124.235 76.5724 122.005C78.8464 122.805 81.293 123.206 83.7108 123.149C88.4025 123.063 93.0367 121.29 96.5771 118.23C93.4684 118.344 90.3022 118.087 87.3663 117.115C86.1574 116.714 85.006 116.2 83.9123 115.542C87.1648 111.31 89.1221 105.991 89.1221 100.243C89.1221 86.316 77.7526 75.0204 63.735 75.0204C49.6886 75.049 38.319 86.3446 38.319 100.271Z" fill="#FBC02D"/>
<path fill-rule="evenodd" clip-rule="evenodd" d="M56.9713 101.757L57.0576 99.4403C57.0864 98.6396 57.6333 97.9247 58.4104 97.6959L61.6342 96.7236H65.5488L69.4058 97.8961C69.8088 98.0105 70.0678 98.3536 70.0966 98.7826L70.2117 101.757L67.1319 110.479L70.2117 116.026H56.9713L60.0223 110.45L56.9713 101.757Z" fill="#1C1C1C"/>
<path fill-rule="evenodd" clip-rule="evenodd" d="M65.5814 96.7236L69.3232 97.8675C69.7838 98.0105 70.1292 98.4394 70.1292 98.897L70.2443 101.757L67.1645 110.479L70.2443 116.026H63.6241L63.5665 99.4689L65.5814 96.7236Z" fill="#1C1C1C"/>
<path fill-rule="evenodd" clip-rule="evenodd" d="M67.3367 110.796L67.164 110.481L67.5669 102.074H63.566H59.7378L60.0544 110.453L59.8817 110.796L57.0034 116.029H63.6236H70.2438L67.3367 110.796Z" fill="#C49000"/>
<path fill-rule="evenodd" clip-rule="evenodd" d="M61.6631 96.7222V94.9206H65.5776V96.7222L63.5628 99.4675L61.6631 96.7222Z" fill="#FFCBBB"/>
<path fill-rule="evenodd" clip-rule="evenodd" d="M61.6631 96.7222V94.9206H65.5776V95.5783L62.0948 97.3799L61.6631 96.7222Z" fill="#F7A794"/>
<path fill-rule="evenodd" clip-rule="evenodd" d="M63.6494 84.656C65.8082 84.656 67.5927 86.5148 67.5927 88.8025C67.5927 88.8597 67.5927 88.8883 67.5927 88.9455C67.6215 89.0027 67.6215 89.0885 67.6215 89.1743C67.5064 89.8034 67.3913 90.3181 67.2761 90.8043L67.3913 90.4039C67.7367 89.4316 68.4563 89.9464 67.8806 91.0902C67.6215 91.5764 67.4488 92.3771 66.758 92.7488L66.7868 92.6059C66.7005 92.8918 66.6141 93.1778 66.499 93.4923C66.0097 94.9508 66.3838 94.7506 65.3764 95.151C64.5705 95.4655 64.1099 95.7229 63.6206 95.6943C63.1601 95.6943 62.6995 95.4369 61.9799 95.1224C60.9725 94.722 61.3179 94.8078 60.8574 93.378C60.771 93.092 60.6847 92.8632 60.5983 92.6059L60.6271 92.7202C59.9363 92.3485 59.7636 91.5764 59.5046 91.0616C58.9289 89.9464 59.6485 89.403 59.9939 90.3753L60.109 90.7757C59.9939 90.2895 59.8788 89.8034 59.7636 89.1743C59.7348 89.0885 59.7636 89.0027 59.7924 88.9455C59.7924 88.8883 59.7924 88.8597 59.7924 88.8025C59.7061 86.5148 61.4906 84.656 63.6494 84.656Z" fill="#FFCBBB"/>
<path fill-rule="evenodd" clip-rule="evenodd" d="M61.2621 87.1461C60.4561 87.9468 59.8805 89.3766 60.1395 91.264C58.3262 86.2596 61.5787 84.1434 63.6511 84.5152C65.7235 84.1148 68.9761 86.231 67.1627 91.264C67.3642 87.2318 61.7514 89.2336 61.2621 87.1461Z" fill="#434343"/>
<path fill-rule="evenodd" clip-rule="evenodd" d="M63.5665 88.3179C65.2647 88.5753 67.2796 88.8041 67.1645 91.2634C68.9778 86.259 65.7253 84.1428 63.6529 84.5146C63.6241 84.5146 63.5953 84.5146 63.5665 84.486V88.3179Z" fill="#434343"/>
<path fill-rule="evenodd" clip-rule="evenodd" d="M63.6513 84.5414C63.6225 84.5414 63.5937 84.5414 63.5649 84.5128C61.6076 84.2268 58.7005 86.0856 59.8806 90.4323L59.8518 90.2893C59.967 87.9158 60.8593 85.914 63.6513 85.914C66.0979 85.914 67.3931 87.8586 67.4795 90.0891C67.5083 90.0605 67.5083 90.0033 67.5083 89.9461C68.3718 85.8854 65.551 84.1696 63.6513 84.5414Z" fill="#434343"/>
<path fill-rule="evenodd" clip-rule="evenodd" d="M57.9534 98.2131L60.0546 99.7573L53.1177 106.535L50.2106 104.876L57.5216 98.2131C57.6368 98.0987 57.8095 98.0987 57.9534 98.2131Z" fill="#1C1C1C"/>
<path fill-rule="evenodd" clip-rule="evenodd" d="M57.1732 113.11C58.3533 113.053 59.0154 112.996 59.591 113.339C59.6774 113.396 59.7349 113.454 59.7637 113.511L58.7563 113.997L57.7201 114.941C57.1444 114.769 56.4536 114.998 56.0218 114.883C55.2159 114.655 55.1871 113.854 55.0432 113.196L56.5399 112.567C56.6839 113.025 56.5975 113.139 57.1732 113.11Z" fill="#FFCBBB"/>
<path fill-rule="evenodd" clip-rule="evenodd" d="M59.7079 113.426L61.0601 114.941C61.2903 115.198 60.8875 115.513 60.6861 115.255L59.2188 113.597L59.7079 113.426Z" fill="#FFCBBB"/>
<path fill-rule="evenodd" clip-rule="evenodd" d="M59.0751 113.541L60.6287 115.313C60.9164 115.656 60.4273 115.97 60.1684 115.656L58.4997 113.712L59.0751 113.541Z" fill="#FFCBBB"/>
<path fill-rule="evenodd" clip-rule="evenodd" d="M58.471 113.969L59.852 115.427C60.0821 115.684 59.6794 116.027 59.478 115.799L57.9819 114.226L58.471 113.969Z" fill="#FFCBBB"/>
<path fill-rule="evenodd" clip-rule="evenodd" d="M57.6633 114.255L59.1019 115.513C59.3608 115.741 59.0156 116.084 58.7854 115.884L57.2318 114.512L57.6633 114.255Z" fill="#FFCBBB"/>
<path fill-rule="evenodd" clip-rule="evenodd" d="M52.3383 104.275L50.2083 104.876L50.0644 105.133C49.8917 105.476 49.9205 105.848 50.122 106.162L55.1591 114.427L57.2891 112.968L52.3383 104.275Z" fill="#1C1C1C"/>
<path fill-rule="evenodd" clip-rule="evenodd" d="M69.5242 98.2113L67.2215 99.7555L74.1584 106.533L77.0655 104.874L70.0711 98.2684C69.9272 98.1255 69.6969 98.0969 69.5242 98.2113Z" fill="#1C1C1C"/>
<path fill-rule="evenodd" clip-rule="evenodd" d="M70.4722 112.966C69.292 113.052 68.63 113.08 68.0831 113.481C68.0256 113.538 67.968 113.595 67.9392 113.652L69.0042 114.024L70.1556 114.825C70.7024 114.567 71.422 114.71 71.825 114.539C72.6021 114.196 72.5446 113.423 72.5734 112.737L71.0191 112.308C70.9327 112.794 71.0478 112.909 70.4722 112.966Z" fill="#FFCBBB"/>
<path fill-rule="evenodd" clip-rule="evenodd" d="M67.9689 113.596L66.8181 115.283C66.6167 115.569 67.077 115.826 67.2497 115.569L68.4868 113.739L67.9689 113.596Z" fill="#FFCBBB"/>
<path fill-rule="evenodd" clip-rule="evenodd" d="M68.6308 113.623L67.3356 115.596C67.0765 115.968 67.6234 116.225 67.8537 115.882L69.2641 113.738L68.6308 113.623Z" fill="#FFCBBB"/>
<path fill-rule="evenodd" clip-rule="evenodd" d="M69.2903 113.996L68.1107 115.596C67.9093 115.882 68.3409 116.168 68.5423 115.911L69.8369 114.167L69.2903 113.996Z" fill="#FFCBBB"/>
<path fill-rule="evenodd" clip-rule="evenodd" d="M70.1245 114.167L68.8586 115.596C68.6285 115.853 69.0313 116.139 69.2326 115.91L70.5849 114.338L70.1245 114.167Z" fill="#FFCBBB"/>
<path fill-rule="evenodd" clip-rule="evenodd" d="M74.9071 104.275L77.0371 104.876L77.1234 105.076C77.2961 105.448 77.2961 105.905 77.0947 106.277L72.5468 114.17L70.4169 112.711L74.9071 104.275Z" fill="#1C1C1C"/>
<path fill-rule="evenodd" clip-rule="evenodd" d="M59.7347 97.2975L61.951 103.875H60.3967L58.2955 97.7264L59.7347 97.2975Z" fill="#C49000"/>
<path fill-rule="evenodd" clip-rule="evenodd" d="M67.566 97.3237L65.3496 103.872H66.9039L68.9764 97.7527L67.566 97.3237Z" fill="#C49000"/>
<path d="M49.9517 92.1494L48.7428 91.7777C49.117 90.7482 49.8078 88.7464 49.8078 88.7464C49.9229 88.4033 49.7214 88.0601 49.376 87.9457C49.0306 87.8313 48.6852 88.0315 48.5701 88.3747C48.5701 88.3747 48.052 90.4336 47.7642 91.4917L46.5553 91.12C45.8644 90.9198 45.3176 91.5775 44.7419 92.5212C44.5692 92.7786 44.3965 93.0931 44.2238 93.3791C44.1087 93.5793 43.9647 93.7795 43.8496 94.0082L44.4828 94.2084L47.1885 95.0377L49.8941 95.867L50.5274 96.0672C50.5562 95.8098 50.5562 95.5525 50.5562 95.3237C50.5849 94.9805 50.6137 94.6374 50.6137 94.3228C50.7289 93.2075 50.6425 92.3782 49.9517 92.1494Z" fill="#C49000"/>
<path d="M50.3842 95.6668C50.3842 95.6954 50.3842 95.6954 50.3842 95.724L49.8373 95.5524L47.4483 94.8375L45.0592 94.1226L44.5124 93.951C44.6275 93.7509 44.7426 93.5507 44.8578 93.3791C45.0017 93.1217 45.1744 92.8644 45.3183 92.607C45.8364 91.7777 46.2969 91.2058 46.9014 91.3773L47.9664 91.6919C48.2254 90.7482 48.686 88.9466 48.686 88.9466C48.7723 88.6607 49.0889 88.4891 49.4056 88.5749C49.6071 88.6321 49.751 88.8036 49.7797 88.9752C49.8373 88.8322 49.8661 88.7464 49.8661 88.7464C49.9812 88.4033 49.7798 88.0601 49.4344 87.9457C49.0889 87.8313 48.7435 88.0315 48.6284 88.3747C48.6284 88.3747 48.1103 90.4336 47.8225 91.4917L46.6136 91.12C45.9227 90.9198 45.3759 91.5775 44.8002 92.5212C44.6275 92.7786 44.4548 93.0931 44.2821 93.3791C44.167 93.5793 44.023 93.7795 43.9079 94.0082L44.5411 94.2084L47.2468 95.0377L49.9525 95.867L50.5857 96.0672C50.5857 95.9528 50.5857 95.8098 50.6145 95.6954C50.5281 95.6954 50.4706 95.6954 50.3842 95.6668Z" fill="#E5A10A"/>
<path d="M49.9492 92.1504L48.7403 91.7786C49.1145 90.7492 49.8053 88.7474 49.8053 88.7474C49.9205 88.4042 49.719 88.0611 49.3736 87.9467C49.0857 87.8609 48.7979 87.9753 48.654 88.2041C48.9994 88.3185 49.2009 88.6616 49.0857 89.0048C49.0857 89.0048 48.3661 91.0065 48.0207 92.036L49.2297 92.4078C49.9205 92.608 49.978 93.4659 49.9492 94.5525C49.9492 94.8671 49.9205 95.2103 49.8917 95.5534C49.8917 95.6392 49.8917 95.725 49.8629 95.8108L49.9205 95.8394L50.5537 96.0396C50.5825 95.7822 50.5825 95.5248 50.5825 95.296C50.6113 94.9529 50.6401 94.6097 50.6401 94.2952C50.7264 93.2085 50.6401 92.3792 49.9492 92.1504Z" fill="#D39807"/>
<path d="M49.9207 96.1218L47.1287 95.2639L44.3367 94.4059L43.7034 94.2058C43.5307 94.4917 43.358 94.7777 43.2141 95.0351L46.8408 96.1504L50.4676 97.2656C50.4964 96.9511 50.4964 96.6079 50.5251 96.2933L49.9207 96.1218Z" fill="#D39807"/>
<path d="M43.5014 95.1808L46.8403 96.2103L50.467 97.3255C50.467 97.0682 50.4958 96.8108 50.4958 96.5534L50.064 96.4104L47.272 95.5525L44.48 94.6946L43.8468 94.4945C43.7892 94.7518 43.6453 94.952 43.5014 95.1808Z" fill="#E5A10A"/>
<path d="M53.406 87.9983C53.0606 86.9116 52.5137 85.1672 52.5137 85.1672C52.3986 84.824 52.0244 84.6525 51.679 84.7954C51.3336 84.9098 51.1609 85.2816 51.3048 85.6247C51.3048 85.6247 52.0244 87.3119 52.4562 88.37C51.9668 88.8276 51.7653 89.6283 52.0244 90.4576L55.133 89.3423C54.7589 88.5416 54.068 88.0269 53.406 87.9983ZM52.0244 85.7105C51.8805 85.7677 51.679 85.6819 51.6214 85.539C51.5639 85.396 51.6502 85.1958 51.7941 85.1386C51.938 85.0814 52.1395 85.1672 52.1971 85.3102C52.2547 85.4818 52.1683 85.6533 52.0244 85.7105Z" fill="#C49000"/>
<path d="M58.4715 93.5221C58.1261 93.3791 57.4353 93.036 57.0611 92.2639C55.9961 90.0619 55.3053 89.6616 55.1614 89.5758L52.1391 90.6624C52.0815 90.8054 51.7937 91.5489 52.3981 93.9225C52.5996 94.7518 52.3118 95.4667 52.1391 95.7813C52.3406 95.7813 52.7148 95.7527 53.3192 95.6383C53.4343 95.1521 53.4343 94.3514 53.1177 93.0646C53.1177 93.0646 53.8949 94.1799 54.0964 95.4667C54.413 95.3809 54.7872 95.2665 55.2189 95.1236L54.8447 93.3791L55.8809 94.8662C56.2264 94.7232 56.543 94.6088 56.8308 94.4658L56.5718 93.4363L57.3777 94.2084C57.9534 93.9225 58.2988 93.6651 58.4715 93.5221Z" fill="#F2F1F0"/>
<path d="M52.5101 85.3446C52.5101 85.3446 52.5677 86.2025 52.5965 87.1176C52.6253 87.7181 52.8843 88.2901 53.3161 88.6904C53.5751 88.9478 53.8054 89.3195 53.9205 89.7199L55.1006 89.291C54.7552 88.5188 54.0932 88.0041 53.4312 87.9755C53.0858 86.8888 52.5389 85.1444 52.5389 85.1444C52.4238 84.8013 52.0496 84.6297 51.7042 84.7727C51.6466 84.8013 51.589 84.8299 51.5603 84.8585C51.6466 84.8013 51.733 84.7727 51.8481 84.7727C52.1647 84.7441 52.4813 85.0014 52.5101 85.3446Z" fill="#D39807"/>
<path d="M55.3325 92.8358C55.6779 91.6061 55.5628 90.4337 55.131 89.5758L52.1087 90.6624C52.0512 90.8054 51.7633 91.5489 52.3678 93.9225C52.5693 94.7518 52.2814 95.4667 52.1087 95.7813C52.2814 95.7813 52.6268 95.7813 53.1162 95.6669C53.1737 95.6383 53.2313 95.6097 53.2889 95.5811C53.3752 95.095 53.3752 94.2942 53.0874 93.036C53.0874 93.036 53.7206 93.9511 53.9797 95.0664C54.3251 94.7232 54.6417 94.3228 54.9007 93.8081L54.7856 93.322L54.9871 93.6079C55.131 93.4077 55.2462 93.1504 55.3325 92.8358Z" fill="white"/>
<path d="M52.9435 93.8943C52.3966 91.6923 52.5117 90.8058 52.6268 90.4913L52.1087 90.6628C52.0512 90.8058 51.7633 91.5493 52.3678 93.9228C52.5693 94.7521 52.2814 95.4671 52.1087 95.7816C52.2239 95.7816 52.4253 95.7816 52.7132 95.753C52.9147 95.3813 53.1737 94.695 52.9435 93.8943Z" fill="#F0F0F0"/>
<path fill-rule="evenodd" clip-rule="evenodd" d="M74.9895 91.6019L75.7666 92.0022C76.112 92.1738 76.3711 92.4598 76.2847 92.8316L75.5363 96.2918C75.45 96.6635 75.0758 96.8923 74.7016 96.8065L72.255 96.2918C71.8808 96.206 71.6506 95.8342 71.7369 95.4625L72.5429 91.7735C72.6004 91.6877 72.6868 91.5447 72.8019 91.3731L74.3274 88.9424L75.45 89.1712L74.9895 91.6019Z" fill="white"/>
<path fill-rule="evenodd" clip-rule="evenodd" d="M74.9916 91.6047L75.7687 92.0051C76.1141 92.1767 76.3732 92.4626 76.2868 92.8344L75.5385 96.2946C75.4521 96.6663 75.0779 96.8951 74.7037 96.8093L73.466 96.552L75.0779 89.1454L75.3945 89.2026L74.9916 91.6047Z" fill="#DCD9C8"/>
<path fill-rule="evenodd" clip-rule="evenodd" d="M74.9895 91.6035L75.7666 92.0038C76.112 92.1754 76.3711 92.4614 76.2847 92.8331L75.5363 96.2934C75.45 96.6651 75.0758 96.8939 74.7016 96.8081L72.255 96.2934C71.8808 96.2076 71.6506 95.8358 71.7369 95.4641L72.5429 91.7751C72.6004 91.6893 72.6868 91.5463 72.8019 91.3747L73.5791 90.1451L75.191 90.4882L74.9895 91.6035Z" fill="white"/>
<path fill-rule="evenodd" clip-rule="evenodd" d="M74.9916 91.6071L75.7687 92.0075C76.1141 92.179 76.3732 92.465 76.2868 92.8368L75.5385 96.297C75.4521 96.6687 75.0779 96.8975 74.7037 96.8117L73.466 96.5543L74.7901 90.4346L75.1643 90.5204L74.9916 91.6071Z" fill="#DCD9C8"/>
<path fill-rule="evenodd" clip-rule="evenodd" d="M75.7372 88.429L75.8235 88.0858L76.025 87.4567L76.831 87.9715L76.7446 90.2306L76.3129 88.7722L75.7372 88.6578L75.5933 89.3155L74.1541 89.0295L74.3556 88.143L75.7372 88.429Z" fill="#D39807"/>
<path fill-rule="evenodd" clip-rule="evenodd" d="M75.7392 88.429L75.8255 88.0858L76.027 87.4567L76.8329 87.9715L76.7466 90.2306L76.3148 88.7722L75.7392 88.6578L75.5952 89.3155L75.0771 89.2297L75.2786 88.3432L75.7392 88.429Z" fill="#D39807"/>
<path fill-rule="evenodd" clip-rule="evenodd" d="M74.7314 86.7998L75.5949 86.9713L76.2857 87.1143C76.3433 87.1143 76.3721 87.1429 76.4296 87.1715L77.2356 87.3717L77.0917 88.0294L76.4584 88.1152V88.1438C76.4009 88.3726 76.1994 88.5155 75.9691 88.4584L74.4148 88.1152C74.1845 88.058 74.0406 87.8578 74.0982 87.6291L74.2133 87.0857C74.2997 86.8855 74.5011 86.7712 74.7314 86.7998Z" fill="white"/>
<path fill-rule="evenodd" clip-rule="evenodd" d="M75.5656 87.0016L76.2849 87.1445C76.3424 87.1445 76.3712 87.1731 76.4287 87.2016L77.2343 87.4017L77.0905 88.0592L76.4575 88.1449V88.1735C76.4 88.4022 76.1986 88.5451 75.9684 88.4879L75.2491 88.345L75.5656 87.0016Z" fill="#DCD9C8"/>
<path d="M77.1542 87.3409L76.9905 88.0953L77.4123 88.1857L77.576 87.4313L77.1542 87.3409Z" fill="#D39807"/>
<path d="M37.1712 115.943L36.2789 114.313L35.3866 115.943C35.1564 116.343 34.811 116.686 34.408 116.915L32.7673 117.801L34.408 118.688C34.811 118.917 35.1564 119.26 35.3866 119.66L36.2789 121.29L37.1712 119.66C37.4015 119.26 37.7469 118.917 38.1499 118.688L39.7905 117.801L38.1499 116.915C37.7181 116.686 37.4015 116.343 37.1712 115.943Z" fill="#FBC02D"/>
<path d="M31.327 101.155L30.4347 99.5254L29.5424 101.155C29.3121 101.556 28.9667 101.899 28.5637 102.128L26.9231 103.014L28.5637 103.901C28.9667 104.129 29.3121 104.473 29.5424 104.873L30.4347 106.503L31.327 104.873C31.5572 104.473 31.9026 104.129 32.3056 103.901L33.9463 103.014L32.3056 102.128C31.9026 101.899 31.5572 101.556 31.327 101.155Z" fill="#FBC02D"/>
<path d="M166.583 233.96H63.1632C61.9543 233.96 60.9756 232.988 60.9756 231.787C60.9756 230.586 61.9543 229.614 63.1632 229.614H166.583C167.792 229.614 168.77 230.586 168.77 231.787C168.77 232.988 167.792 233.96 166.583 233.96Z" fill="#EDEDED"/>
<path d="M209.758 246.542H106.339C105.13 246.542 104.151 245.569 104.151 244.368C104.151 243.167 105.13 242.195 106.339 242.195H209.758C210.967 242.195 211.946 243.167 211.946 244.368C211.946 245.569 210.967 246.542 209.758 246.542Z" fill="#EDEDED"/>
</svg>
