<svg width="280" height="272" viewBox="0 0 280 272" fill="none" xmlns="http://www.w3.org/2000/svg">
<path d="M226.57 112.627C226.57 160.004 187.91 198.411 140.221 198.411C92.531 198.411 53.8714 160.004 53.8714 112.627C53.8714 65.2492 92.531 26.8426 140.221 26.8426C187.91 26.8426 226.57 65.2492 226.57 112.627Z" fill="white"/>
<path d="M172.178 192.313C204.065 179.698 226.57 148.79 226.57 112.627C226.57 101.693 224.524 91.3208 220.785 81.7191L172.178 192.313Z" fill="#EDEDEE"/>
<path d="M53.8714 112.627C53.8714 124.751 56.4111 136.245 60.926 146.688L112.072 31.5383C78.21 43.1023 53.8714 75.0611 53.8714 112.627Z" fill="#EDEDEE"/>
<path d="M140.221 26.8426C135.917 26.8426 131.684 27.193 127.593 27.7537L69.0389 161.055C77.1518 172.83 88.1571 182.431 100.997 189.019L170.556 32.3092C161.102 28.8049 150.873 26.8426 140.221 26.8426Z" fill="#EDEDEE"/>
<path d="M182.055 37.6357L113.272 194.136C121.737 196.869 130.767 198.411 140.15 198.411C145.441 198.411 150.591 197.92 155.6 197.009L213.307 67.0714C205.617 54.8065 194.824 44.6442 182.055 37.6357Z" fill="#EDEDEE"/>
<path d="M201.385 141.081C201.385 141.081 200.044 135.615 203.219 128.746C206.393 121.878 217.751 121.738 218.104 124.751C218.457 127.765 210.485 134.633 206.746 137.367C203.007 140.17 201.385 141.081 201.385 141.081Z" fill="#BCBCBC"/>
<path d="M204.348 149.211C204.348 149.211 202.02 144.726 207.522 138.418C212.954 132.11 216.693 129.587 218.034 133.512C219.445 137.437 208.298 145.777 204.348 149.211Z" fill="#BCBCBC"/>
<path d="M200.185 143.044C200.185 143.044 185.935 139.609 189.462 130.008C192.99 120.546 200.185 143.044 200.185 143.044Z" fill="#BCBCBC"/>
<path d="M199.762 152.085C199.55 151.734 200.609 148.23 196.517 144.165C192.425 140.1 185.512 142.273 184.171 144.165C182.831 146.057 188.757 148.51 193.272 149.211C197.857 149.912 199.762 152.085 199.762 152.085Z" fill="#BCBCBC"/>
<path d="M206.393 152.085C206.393 152.085 205.406 149.772 210.556 146.478C215.706 143.114 224.383 143.604 223.043 146.478C221.773 149.351 212.672 152.155 206.393 152.085Z" fill="#BCBCBC"/>
<path d="M214.718 147.949C214.718 147.949 211.402 148.72 208.792 150.122C206.676 151.243 203.924 155.098 202.866 156.64C203.148 155.098 203.924 151.243 205.476 147.038C207.522 141.572 212.249 137.927 212.319 137.857L212.108 137.577C212.037 137.647 207.24 141.361 205.124 146.898C204.489 148.51 204.065 150.052 203.642 151.454C203.501 149.772 203.007 146.688 200.75 143.744C200.961 142.973 203.078 136.245 205.547 133.091C208.087 129.797 211.614 128.256 211.614 128.256L211.473 127.975C211.402 127.975 207.875 129.587 205.265 132.951C202.937 135.895 200.961 142.062 200.538 143.464C197.293 139.329 193.624 135.685 193.624 135.615L193.413 135.825C193.483 135.895 197.293 139.679 200.538 143.885C203.713 148.02 203.43 152.505 203.43 152.575C202.937 154.467 202.654 155.939 202.513 156.71C201.737 154.818 198.845 148.58 196.094 146.758C192.919 144.655 190.591 144.796 190.52 144.796V145.146C190.52 145.146 192.778 145.076 195.882 147.108C198.986 149.141 202.372 157.341 202.372 157.411L202.584 157.972L202.654 157.411C202.937 156.99 206.393 151.664 208.863 150.332C211.473 148.931 214.718 148.16 214.718 148.16V147.949Z" fill="#1C1C1C"/>
<path d="M207.804 157.481H200.256H192.99C191.649 157.481 190.591 158.743 190.873 160.074L193.977 174.652C194.189 175.633 195.035 176.334 196.094 176.334H200.256H207.804H211.967C212.954 176.334 213.871 175.633 214.083 174.652L217.187 160.074C217.469 158.743 216.482 157.481 215.071 157.481H207.804Z" fill="#444444"/>
<path d="M123.924 26.9828C123.854 26.9828 126.041 64.4082 66.7109 118.934C66.7109 118.934 99.8679 180.609 104.242 246.559H56.9754V26.9828H123.924Z" fill="#CFD1D2"/>
<path d="M56.9754 126.503H68.1218C70.3088 126.503 72.0724 124.751 72.0724 122.579C72.0724 120.406 70.3088 118.654 68.1218 118.654H56.9754V126.503Z" fill="#EBEBEB"/>
<path d="M115.388 28.3845C115.388 28.3845 97.1166 77.2337 77.0813 100.011C66.2171 112.346 58.6686 117.182 58.6686 117.182" stroke="#1C1C1C" stroke-width="1.6076" stroke-miterlimit="10"/>
<path d="M62.4075 128.326C62.4075 128.326 89.0742 173.25 94.2947 202.966C97.1166 219.086 96.1289 228.057 96.1289 228.057" stroke="#1C1C1C" stroke-width="1.6076" stroke-miterlimit="10"/>
<path d="M98.5275 25.2306C98.5275 25.2306 80.2559 74.0799 60.2206 96.8575C49.3564 109.192 45.3352 111.645 45.3352 111.645" stroke="#1C1C1C" stroke-width="1.6076" stroke-miterlimit="10"/>
<path d="M159.268 214.25H60.5732C59.4445 214.25 58.4568 213.339 58.4568 212.147C58.4568 211.026 59.3739 210.045 60.5732 210.045H159.268C160.397 210.045 161.385 210.956 161.385 212.147C161.314 213.339 160.397 214.25 159.268 214.25Z" fill="#EDEDEE"/>
<path d="M200.467 226.305H101.773C100.644 226.305 99.6561 225.393 99.6561 224.202C99.6561 223.081 100.573 222.099 101.773 222.099H200.467C201.596 222.099 202.584 223.011 202.584 224.202C202.513 225.393 201.596 226.305 200.467 226.305Z" fill="#EDEDEE"/>
<path d="M235.67 96.9977L236.517 95.5259L237.363 96.9977C237.575 97.3481 237.857 97.6986 238.28 97.9088L239.762 98.7498L238.28 99.5909C237.928 99.8011 237.575 100.081 237.363 100.502L236.517 101.974L235.67 100.502C235.459 100.152 235.176 99.8011 234.753 99.5909L233.272 98.7498L234.753 97.9088C235.176 97.6986 235.459 97.3481 235.67 96.9977Z" fill="#F9C02D"/>
<path d="M242.16 72.1175L243.007 70.6458L243.854 72.1175C244.065 72.468 244.347 72.8184 244.771 73.0286L246.252 73.8697L244.771 74.7107C244.418 74.9209 244.065 75.2013 243.854 75.6218L243.007 77.0936L242.16 75.6218C241.949 75.2714 241.667 74.9209 241.243 74.7107L239.762 73.8697L241.243 73.0286C241.667 72.8184 241.949 72.538 242.16 72.1175Z" fill="#F9C02D"/>
<path d="M150.238 76.8132C150.238 89.4285 139.938 99.6609 127.24 99.6609C114.542 99.6609 104.242 89.4285 104.242 76.8132C104.242 64.1979 114.683 63.9175 127.381 63.9175C140.08 63.9175 150.238 64.1979 150.238 76.8132Z" fill="#444444"/>
<path d="M151.155 99.1703C151.155 99.1703 150.732 109.263 143.466 115.36C140.503 117.883 136.341 119.705 130.626 119.915C125.688 119.775 121.878 118.374 119.057 116.341C110.52 110.384 110.097 99.1703 110.097 99.1703L110.803 83.8217L111.155 74.4303C120.679 74.9909 125.406 72.0474 133.519 67.0713C136.764 65.109 147.628 67.7021 147.84 63.9175C151.155 69.5944 151.861 75.832 152.143 82.3499L150.52 86.0644C150.52 86.0644 153.342 84.102 155.247 86.0644C155.388 86.2046 155.459 86.2746 155.6 86.4148C157.293 88.9379 157.505 97.3481 151.155 99.1703Z" fill="#FBCBBC"/>
<path d="M111.438 85.5038C111.438 85.5038 108.051 83.5414 106.147 85.5038C106.005 85.644 105.935 85.714 105.794 85.8542C103.889 88.4474 104.594 96.7875 110.944 98.6097" fill="#FBCBBC"/>
<path d="M121.808 89.6388C121.808 91.3209 120.679 92.6525 119.339 92.6525C117.928 92.6525 116.87 91.3209 116.87 89.6388C116.87 87.9568 117.998 86.6252 119.339 86.6252C120.679 86.6252 121.808 87.9568 121.808 89.6388Z" fill="#444444"/>
<path d="M143.254 89.9191C143.254 91.6012 142.125 92.9328 140.785 92.9328C139.374 92.9328 138.316 91.6012 138.316 89.9191C138.316 88.2371 139.445 86.9055 140.785 86.9055C142.125 86.9055 143.254 88.2371 143.254 89.9191Z" fill="#444444"/>
<path d="M125.335 106.95L137.046 105.128C137.046 105.128 136.34 110.804 131.473 111.365C126.676 111.856 125.335 106.95 125.335 106.95Z" fill="white"/>
<path d="M146.147 82.1397C144.171 81.579 142.196 81.3688 140.15 81.3688C139.515 81.3688 138.88 81.9295 138.951 82.5602C138.951 83.191 139.515 83.7517 140.15 83.7517C141.067 83.7517 141.984 83.8218 142.901 83.8919C142.972 83.8919 143.042 83.8919 143.042 83.8919C143.184 83.8919 143.254 83.8919 143.395 83.9619C143.677 84.032 143.889 84.032 144.171 84.1021C144.665 84.1722 145.088 84.3124 145.512 84.4525C146.147 84.5927 146.852 84.2423 146.993 83.6115C147.134 82.9807 146.781 82.2799 146.147 82.1397Z" fill="#444444"/>
<path d="M114.612 82.1397C116.587 81.579 118.563 81.3688 120.609 81.3688C121.244 81.3688 121.878 81.9295 121.808 82.5602C121.808 83.191 121.244 83.7517 120.609 83.7517C119.692 83.7517 118.774 83.8218 117.857 83.8919C117.787 83.8919 117.716 83.8919 117.716 83.8919C117.575 83.8919 117.505 83.8919 117.364 83.9619C117.081 84.032 116.87 84.032 116.587 84.1021C116.094 84.1722 115.67 84.3124 115.247 84.4525C114.612 84.5927 113.907 84.2423 113.766 83.6115C113.625 82.9807 113.977 82.2799 114.612 82.1397Z" fill="#444444"/>
<path d="M110.52 76.3928C119.692 77.7945 124.841 70.4356 135.423 72.9586C140.926 74.2902 147.416 74.3603 149.744 69.5244C146.923 75.4116 150.168 77.0235 150.45 83.5414L150.732 85.9944C150.732 85.9944 153.554 84.3124 155.459 86.2748C157.716 79.2663 158.633 71.0663 155.459 64.4082C153.201 59.5724 148.968 55.6476 143.96 53.8955C141.914 53.1946 139.797 52.8442 137.61 52.9844C134.224 53.1946 130.979 54.4562 127.875 55.8579C124.771 57.2596 121.667 58.8014 118.351 59.5724C115.035 60.3433 111.367 60.3433 108.404 58.6613C107.064 57.8903 105.653 56.769 104.171 57.1895C102.549 57.61 101.843 59.5023 101.632 61.1142C101.632 61.3245 101.561 61.5347 101.561 61.745C101.067 67.492 104.171 72.9586 109.251 75.6919L110.52 76.3928Z" fill="#444444"/>
<path d="M145.441 126.223L145.935 128.956C145.935 128.956 144.806 143.955 132.531 143.955C120.256 143.955 116.87 129.027 116.87 129.027L117.222 126.784L118.774 116.131C138.457 119.074 143.254 115.64 143.395 115.29L145.441 126.223Z" fill="#FBCBBC"/>
<path d="M130.556 119.845C136.27 119.635 140.432 117.813 143.395 115.29C143.254 115.57 134.506 129.727 118.774 116.692L118.915 116.271C121.808 118.304 125.617 119.705 130.556 119.845Z" fill="#F8A794"/>
<path d="M230.097 81.3686C230.097 96.7173 217.54 109.192 202.09 109.192C196.94 109.192 192.072 107.791 187.91 105.338C185.371 106.249 182.69 106.669 180.009 106.599C174.859 106.529 169.709 104.567 165.829 101.203C169.286 101.343 172.743 101.063 175.988 99.9412C177.328 99.5207 178.598 98.96 179.797 98.189C176.199 93.4934 174.083 87.6763 174.083 81.3686C174.083 66.02 186.64 53.5449 202.09 53.5449C217.54 53.5449 230.097 66.02 230.097 81.3686Z" fill="#F9C02D"/>
<path d="M202.09 53.5449C198.704 53.5449 195.529 54.1056 192.496 55.2269C203.219 59.0816 210.908 69.314 210.908 81.3686C210.908 93.3532 203.219 103.586 192.496 107.51C195.459 108.562 198.704 109.192 202.09 109.192C217.54 109.192 230.097 96.7173 230.097 81.3686C230.097 66.02 217.54 53.5449 202.09 53.5449Z" fill="#F4B840"/>
<path d="M65.2999 149.842L59.0213 154.818L61.1377 115.36L44.9825 114.869C44.9825 114.869 24.665 170.937 37.2929 182.431C44.8414 189.3 77.3634 174.161 77.3634 174.161L65.2999 149.842Z" fill="#FBCBBC"/>
<path d="M61.0672 115.43L45.0531 114.939C42.6545 110.594 33.554 85.0131 35.9526 84.8028C38.6333 84.5225 45.4764 93.2831 45.4764 93.2831C45.4764 93.2831 39.8326 73.0986 42.725 72.8183C45.688 72.538 51.4023 89.3584 51.4023 89.3584C51.4023 89.3584 49.2859 70.5756 52.2489 69.9448C55.2118 69.314 57.1166 87.7464 57.1166 87.7464C57.1166 87.7464 61.0672 72.0474 63.8185 74.22C65.7938 75.8319 64.1713 87.3259 63.1836 93.3532C62.8309 95.4558 63.8891 97.5583 65.8644 98.4694C65.8644 98.4694 74.9649 91.3908 77.0108 93.8438C78.845 96.0164 64.2418 110.664 61.1377 113.678" fill="#FBCBBC"/>
<path d="M143.96 53.9655C137.399 46.8869 129.356 56.839 118.492 54.8066C116.587 54.4561 112.989 52.4937 112.778 55.0869C112.496 58.5211 123.078 63.6373 125.9 61.6048C128.792 59.6424 143.96 53.9655 143.96 53.9655Z" fill="#444444"/>
<path d="M129.85 100.222C128.087 100.222 126.817 98.8899 127.24 97.5583L129.991 88.5874L132.531 97.6284C132.813 98.96 131.543 100.222 129.85 100.222Z" fill="#F8A794"/>
<path d="M56.1994 182.081L58.4569 153.066L67.9101 178.086L56.1994 182.081Z" fill="#F8A794"/>
<path d="M202.302 172.129C202.302 172.129 204.559 170.447 202.584 167.854C200.609 165.331 198.845 165.611 198.845 165.611L184.453 143.814C177.893 134.844 168.087 128.816 157.081 126.924L145.018 125.032L144.806 127.274C144.242 133.722 139.727 138.628 133.237 138.628H129.85C123.36 138.628 117.998 133.722 117.434 127.274L117.293 125.522L95.0002 129.517C87.875 130.779 81.173 133.862 75.5998 138.418L57.5399 153.066L62.4076 182.922C62.4076 182.922 67.5575 183.483 69.5328 181.52C71.5081 179.558 72.0725 179.838 75.2471 179.558C78.4217 179.277 78.9861 176.404 78.9861 176.404L87.5928 171.007V180.399C102.196 193.575 121.596 198.13 142.901 198.13C155.529 198.13 165.759 195.607 176.482 190.491L176.552 185.165L178.245 189.72C186.852 186.566 197.363 177.525 201.102 173.741C202.02 172.97 202.302 172.129 202.302 172.129Z" fill="#1C1C1C"/>
<path d="M119.198 153.486L117.857 152.575L117.787 152.505L117.646 152.365L116.587 151.594L114.259 149.982L114.118 149.912C114.048 149.912 114.048 149.842 113.977 149.842C113.624 149.632 113.201 149.491 112.778 149.491C112.214 149.491 111.72 149.702 111.296 150.052L108.968 151.664L107.981 152.365L107.628 152.575L106.429 153.416C105.864 153.837 105.441 154.467 105.441 155.238V160.355C105.441 161.546 106.429 162.527 107.628 162.527H109.109C110.309 162.527 111.296 161.546 111.296 160.355H109.815H107.628V158.743V158.182V157.481V155.238L109.392 153.977L110.944 152.855L111.296 152.645L112.778 151.594L114.259 152.645L114.612 152.855L116.164 153.977L117.928 155.238V157.411V158.112V158.673V160.284H115.741H114.259C114.259 161.476 115.247 162.457 116.446 162.457H117.928C119.127 162.457 120.115 161.476 120.115 160.284V155.238C120.115 154.538 119.762 153.907 119.198 153.486Z" fill="white"/>
<path d="M175.423 178.577C175.282 177.595 175 176.614 174.93 175.703C174.788 174.792 174.647 173.881 174.577 172.97C174.506 172.129 174.436 171.288 174.365 170.517C174.365 169.746 174.295 169.045 174.295 168.414C174.295 167.783 174.295 167.223 174.295 166.802C174.365 165.891 174.365 165.331 174.365 165.331C174.365 165.331 174.083 165.821 173.73 166.662C173.378 167.503 173.025 168.835 172.743 170.447C172.672 171.218 172.46 172.129 172.46 173.04C172.39 173.951 172.39 174.932 172.46 175.983C172.46 176.754 172.602 177.525 172.672 178.366C172.743 178.997 172.884 179.558 173.025 180.118C173.166 180.609 173.378 181.24 173.519 181.73C173.871 182.852 174.365 183.973 175.071 184.954C175.917 186.076 176.27 186.146 176.411 186.706V183.272C176.27 182.712 176.129 182.151 175.988 181.59C175.847 180.539 175.706 179.488 175.423 178.577Z" fill="#272828"/>
<path d="M44.136 112.206C44.136 112.206 45.1942 114.729 48.5099 114.869C51.8256 115.01 55.2824 114.729 55.2824 114.729C55.2824 114.729 52.1078 115.851 49.0037 116.131C45.8291 116.411 44.4887 116.131 44.4887 116.131L44.9825 114.729L44.136 112.206Z" fill="#F8A794"/>
<path d="M89.3564 171.008C89.3564 171.008 96.1994 175.843 110.52 176.965C124.841 178.086 132.531 174.442 132.531 174.442C132.531 174.442 132.531 179.278 122.796 180.399C118.069 180.96 115.035 181.45 113.131 181.801C112.566 181.941 112.566 182.782 113.131 182.852C117.081 183.483 124.489 184.604 128.792 184.394C134.788 184.113 145.37 184.674 148.263 182.431C151.155 180.189 149.815 183.973 139.938 187.828C125.335 193.505 105.935 187.828 103.325 183.833C103.042 183.413 102.831 182.221 104.947 181.24C105.582 180.96 105.512 180.049 104.806 179.838C100.362 178.577 89.7796 175.213 88.4393 171.849C86.7461 167.573 89.3564 171.008 89.3564 171.008Z" fill="#272828"/>
<path d="M224.101 170.727H202.02L198.281 157.341H224.101C227.84 157.341 230.803 160.355 230.803 163.999C230.803 167.784 227.84 170.727 224.101 170.727Z" fill="#444444"/>
<path d="M230.661 181.24H220.432C218.457 181.24 216.905 179.768 216.764 177.806C216.623 175.703 218.316 173.881 220.432 173.881H230.661C232.707 173.881 234.33 175.493 234.33 177.525C234.33 179.558 232.707 181.24 230.661 181.24Z" fill="#444444"/>
<path d="M197.152 163.018C197.152 163.018 197.998 166.172 193.977 168.134C189.956 170.096 186.288 170.377 186.288 170.377C186.288 170.377 189.18 170.937 191.72 170.657C194.259 170.377 198.563 166.943 198.563 166.943C198.563 166.943 199.692 166.102 200.538 167.784C200.82 168.414 201.032 169.045 201.173 169.606C201.385 170.657 201.173 171.778 200.609 172.69L198.492 175.984C198.492 175.984 203.289 171.849 203.289 170.937C203.36 170.026 203.007 168.695 202.584 167.924C202.161 167.153 200.961 166.242 200.468 165.961C199.621 165.471 198.774 165.471 198.774 165.471L197.505 163.508L197.152 163.018Z" fill="#272828"/>
<path d="M211.191 181.24C213.256 181.24 214.93 179.577 214.93 177.525C214.93 175.474 213.256 173.811 211.191 173.811C209.126 173.811 207.452 175.474 207.452 177.525C207.452 179.577 209.126 181.24 211.191 181.24Z" fill="#444444"/>
<path d="M99.0918 40.8596H85.1941C83.2188 40.8596 81.6668 39.3878 81.5257 37.4255C81.3846 35.3229 83.0777 33.5007 85.1941 33.5007H107.346L99.0918 40.8596Z" fill="#CFD1D2"/>
<path d="M75.882 40.8596C77.947 40.8596 79.6209 39.1965 79.6209 37.1451C79.6209 35.0936 77.947 33.4305 75.882 33.4305C73.817 33.4305 72.143 35.0936 72.143 37.1451C72.143 39.1965 73.817 40.8596 75.882 40.8596Z" fill="#CFD1D2"/>
<path d="M73.5539 64.338H50.2735C45.4763 64.338 41.5962 60.4834 41.5962 55.7176C41.5962 50.9518 45.4763 47.0971 50.2735 47.0971H85.6879L73.5539 64.338Z" fill="#CFD1D2"/>
<path d="M191.398 79.7871V80.9125H185.749V79.7871H191.398ZM185.964 75.3V85.7366H184.581V75.3H185.964ZM192.602 75.3V85.7366H191.226V75.3H192.602ZM198.078 85.8799C197.538 85.8799 197.049 85.7891 196.609 85.6075C196.174 85.4212 195.799 85.1607 195.484 84.8262C195.173 84.4917 194.934 84.0951 194.767 83.6363C194.6 83.1776 194.516 82.6758 194.516 82.1311V81.83C194.516 81.1992 194.609 80.6377 194.795 80.1455C194.982 79.6486 195.235 79.228 195.555 78.884C195.875 78.5399 196.239 78.2795 196.645 78.1027C197.051 77.9259 197.471 77.8375 197.906 77.8375C198.461 77.8375 198.939 77.933 199.34 78.1242C199.746 78.3153 200.078 78.5829 200.336 78.927C200.594 79.2663 200.785 79.6677 200.91 80.1312C201.034 80.59 201.096 81.0917 201.096 81.6365V82.2314H195.304V81.1491H199.77V81.0487C199.751 80.7046 199.679 80.3701 199.555 80.0452C199.435 79.7202 199.244 79.4526 198.982 79.2424C198.719 79.0321 198.36 78.927 197.906 78.927C197.605 78.927 197.328 78.9915 197.075 79.1205C196.822 79.2448 196.604 79.4311 196.423 79.6796C196.241 79.9281 196.1 80.2316 196 80.59C195.899 80.9484 195.849 81.3617 195.849 81.83V82.1311C195.849 82.499 195.899 82.8455 196 83.1704C196.105 83.4906 196.255 83.7725 196.451 84.0162C196.652 84.26 196.893 84.4511 197.175 84.5897C197.462 84.7283 197.787 84.7976 198.15 84.7976C198.618 84.7976 199.015 84.702 199.34 84.5108C199.665 84.3197 199.949 84.064 200.193 83.7439L200.996 84.3818C200.828 84.6351 200.616 84.8764 200.358 85.1058C200.1 85.3352 199.782 85.5215 199.404 85.6649C199.032 85.8082 198.59 85.8799 198.078 85.8799ZM204.085 74.7266V85.7366H202.752V74.7266H204.085ZM207.655 74.7266V85.7366H206.322V74.7266H207.655ZM209.432 81.9447V81.7798C209.432 81.2207 209.514 80.7023 209.676 80.2244C209.839 79.7417 210.073 79.3236 210.379 78.97C210.684 78.6116 211.055 78.3344 211.49 78.1385C211.924 77.9378 212.412 77.8375 212.952 77.8375C213.497 77.8375 213.986 77.9378 214.421 78.1385C214.861 78.3344 215.234 78.6116 215.54 78.97C215.85 79.3236 216.087 79.7417 216.249 80.2244C216.412 80.7023 216.493 81.2207 216.493 81.7798V81.9447C216.493 82.5038 216.412 83.0223 216.249 83.5002C216.087 83.978 215.85 84.3961 215.54 84.7545C215.234 85.1082 214.863 85.3853 214.428 85.586C213.998 85.782 213.511 85.8799 212.966 85.8799C212.421 85.8799 211.932 85.782 211.497 85.586C211.062 85.3853 210.689 85.1082 210.379 84.7545C210.073 84.3961 209.839 83.978 209.676 83.5002C209.514 83.0223 209.432 82.5038 209.432 81.9447ZM210.758 81.7798V81.9447C210.758 82.3318 210.804 82.6973 210.895 83.0414C210.985 83.3807 211.122 83.6817 211.303 83.9446C211.49 84.2074 211.721 84.4153 211.999 84.5682C212.276 84.7163 212.598 84.7904 212.966 84.7904C213.329 84.7904 213.647 84.7163 213.92 84.5682C214.197 84.4153 214.426 84.2074 214.608 83.9446C214.789 83.6817 214.925 83.3807 215.016 83.0414C215.112 82.6973 215.16 82.3318 215.16 81.9447V81.7798C215.16 81.3975 215.112 81.0368 215.016 80.6975C214.925 80.3534 214.787 80.05 214.601 79.7871C214.419 79.5195 214.19 79.3093 213.912 79.1564C213.64 79.0034 213.32 78.927 212.952 78.927C212.589 78.927 212.269 79.0034 211.991 79.1564C211.719 79.3093 211.49 79.5195 211.303 79.7871C211.122 80.05 210.985 80.3534 210.895 80.6975C210.804 81.0368 210.758 81.3975 210.758 81.7798ZM218.177 85.0341C218.177 84.8095 218.247 84.6207 218.385 84.4678C218.529 84.3101 218.734 84.2313 219.002 84.2313C219.269 84.2313 219.472 84.3101 219.611 84.4678C219.754 84.6207 219.826 84.8095 219.826 85.0341C219.826 85.2539 219.754 85.4403 219.611 85.5932C219.472 85.7461 219.269 85.8226 219.002 85.8226C218.734 85.8226 218.529 85.7461 218.385 85.5932C218.247 85.4403 218.177 85.2539 218.177 85.0341ZM184.402 102.034C184.402 101.809 184.471 101.621 184.61 101.468C184.753 101.31 184.959 101.231 185.226 101.231C185.494 101.231 185.697 101.31 185.835 101.468C185.979 101.621 186.051 101.809 186.051 102.034C186.051 102.254 185.979 102.44 185.835 102.593C185.697 102.746 185.494 102.823 185.226 102.823C184.959 102.823 184.753 102.746 184.61 102.593C184.471 102.44 184.402 102.254 184.402 102.034Z" fill="#010101"/>
</svg>
