<svg width="227" height="259" viewBox="0 0 227 259" fill="none" xmlns="http://www.w3.org/2000/svg">
<path d="M160.212 242.954H96.5465C90.2745 242.954 85.1474 237.86 85.1474 231.629V92.5874C85.1474 86.3561 90.2745 81.2623 96.5465 81.2623H160.212C166.484 81.2623 171.611 86.3561 171.611 92.5874V231.629C171.611 237.86 166.484 242.954 160.212 242.954Z" fill="#434343"/>
<path d="M167.331 93.6505V229.477C167.331 234.077 163.572 237.86 158.968 237.86H97.816C93.2115 237.86 89.4533 234.101 89.4533 229.477V93.6505C89.4533 89.0513 93.2115 85.268 97.816 85.268H158.968C163.548 85.2927 167.331 89.0513 167.331 93.6505Z" fill="white"/>
<path d="M141.172 90.3373H115.611C113.521 90.3373 111.828 88.6558 111.828 86.5787V85.9852C111.828 83.9081 113.521 82.2267 115.611 82.2267H141.172C143.263 82.2267 144.955 83.9081 144.955 85.9852V86.5787C144.955 88.6311 143.238 90.3373 141.172 90.3373Z" fill="#434343"/>
<path d="M160.561 106.954H96.8204C96.3724 106.954 96.0239 106.608 96.0239 106.163V101.094C96.0239 100.648 96.3724 100.302 96.8204 100.302H160.586C161.034 100.302 161.382 100.648 161.382 101.094V106.163C161.357 106.608 161.009 106.954 160.561 106.954Z" fill="#EDEDED"/>
<path d="M129.475 135.193H97.6168C96.7457 135.193 96.0239 134.476 96.0239 133.61V113.581C96.0239 112.716 96.7457 111.998 97.6168 111.998H129.475C130.346 111.998 131.067 112.716 131.067 113.581V133.61C131.067 134.476 130.346 135.193 129.475 135.193Z" fill="#EDEDED"/>
<path d="M155.633 116.004H135.896C135.348 116.004 134.925 115.559 134.925 115.04C134.925 114.496 135.373 114.076 135.896 114.076H155.633C156.18 114.076 156.603 114.521 156.603 115.04C156.603 115.584 156.155 116.004 155.633 116.004Z" fill="#EDEDED"/>
<path d="M146.324 120.727H135.871C135.324 120.727 134.9 120.282 134.9 119.763C134.9 119.219 135.348 118.798 135.871 118.798H146.324C146.872 118.798 147.295 119.244 147.295 119.763C147.32 120.282 146.872 120.727 146.324 120.727Z" fill="#EDEDED"/>
<path d="M150.058 131.088H136.493C135.622 131.088 134.9 130.371 134.9 129.505V128.467C134.9 127.601 135.622 126.884 136.493 126.884H150.058C150.929 126.884 151.651 127.601 151.651 128.467V129.505C151.651 130.396 150.929 131.088 150.058 131.088Z" fill="#EDEDED"/>
<path d="M129.475 215.532H97.6168C96.7457 215.532 96.0239 214.814 96.0239 213.949V193.92C96.0239 193.054 96.7457 192.337 97.6168 192.337H129.475C130.346 192.337 131.067 193.054 131.067 193.92V213.949C131.067 214.814 130.346 215.532 129.475 215.532Z" fill="#EDEDED"/>
<path d="M155.633 196.343H135.896C135.348 196.343 134.925 195.898 134.925 195.379C134.925 194.835 135.373 194.414 135.896 194.414H155.633C156.18 194.414 156.603 194.859 156.603 195.379C156.603 195.923 156.155 196.343 155.633 196.343Z" fill="#EDEDED"/>
<path d="M146.324 201.066H135.871C135.324 201.066 134.9 200.621 134.9 200.102C134.9 199.558 135.348 199.137 135.871 199.137H146.324C146.872 199.137 147.295 199.582 147.295 200.102C147.32 200.621 146.872 201.066 146.324 201.066Z" fill="#EDEDED"/>
<path d="M150.058 211.427H136.493C135.622 211.427 134.9 210.71 134.9 209.844V208.806C134.9 207.94 135.622 207.223 136.493 207.223H150.058C150.929 207.223 151.651 207.94 151.651 208.806V209.844C151.651 210.734 150.929 211.427 150.058 211.427Z" fill="#EDEDED"/>
<path d="M129.475 167.165H97.6168C96.7457 167.165 96.0239 166.448 96.0239 165.582V145.553C96.0239 144.688 96.7457 143.971 97.6168 143.971H129.475C130.346 143.971 131.067 144.688 131.067 145.553V165.582C131.067 166.448 130.346 167.165 129.475 167.165Z" fill="#E8EDF7"/>
<path d="M155.633 147.977H135.896C135.348 147.977 134.925 147.532 134.925 147.012C134.925 146.468 135.373 146.048 135.896 146.048H155.633C156.18 146.048 156.603 146.493 156.603 147.012C156.603 147.556 156.155 147.977 155.633 147.977Z" fill="#E8EDF7"/>
<path d="M146.324 152.7H135.871C135.324 152.7 134.9 152.254 134.9 151.735C134.9 151.191 135.348 150.771 135.871 150.771H146.324C146.872 150.771 147.295 151.216 147.295 151.735C147.32 152.254 146.872 152.7 146.324 152.7Z" fill="#E8EDF7"/>
<path d="M150.058 163.06H136.493C135.622 163.06 134.9 162.343 134.9 161.478V160.439C134.9 159.574 135.622 158.857 136.493 158.857H150.058C150.929 158.857 151.651 159.574 151.651 160.439V161.478C151.651 162.368 150.929 163.06 150.058 163.06Z" fill="#E8EDF7"/>
<path d="M171.014 243.276H137.887H81.5883H48.4612C47.4159 243.276 46.5697 244.116 46.5697 245.155C46.5697 246.193 47.4159 247.034 48.4612 247.034H81.5883H137.887H171.014C172.059 247.034 172.906 246.193 172.906 245.155C172.931 244.116 172.059 243.276 171.014 243.276Z" fill="#EDEDED"/>
<path d="M224.251 258.656H134.826C133.78 258.656 132.934 257.815 132.934 256.777C132.934 255.738 133.78 254.897 134.826 254.897H224.251C225.297 254.897 226.143 255.738 226.143 256.777C226.143 257.815 225.297 258.656 224.251 258.656Z" fill="#EDEDED"/>
<path d="M146.996 189.296H109.787C103.515 189.296 98.4381 184.252 98.4381 178.02V141.053C98.4381 134.822 103.515 129.777 109.787 129.777H146.996C153.268 129.777 158.346 134.822 158.346 141.053V178.02C158.346 184.252 153.243 189.296 146.996 189.296Z" fill="#262828"/>
<path d="M147.444 129.802C149.037 134.08 149.908 138.704 149.908 143.501C149.908 165.335 132.088 183.065 110.086 183.065C106.204 183.065 102.445 182.521 98.9111 181.482C100.38 186.007 104.66 189.296 109.713 189.296H146.922C153.194 189.296 158.271 184.252 158.271 178.02V141.053C158.271 134.995 153.468 130.074 147.444 129.802Z" fill="#1C1C1C"/>
<path d="M108.817 161.131L109.315 161.626C109.041 161.898 108.692 162.121 108.319 162.294C107.921 162.442 107.498 162.541 107.05 162.541C106.602 162.541 106.179 162.467 105.78 162.294C105.382 162.121 105.059 161.923 104.76 161.626C104.486 161.354 104.262 161.008 104.088 160.612C103.939 160.217 103.839 159.796 103.839 159.351C103.839 158.906 103.914 158.486 104.088 158.09C104.237 157.694 104.461 157.373 104.76 157.076C105.034 156.804 105.382 156.582 105.78 156.409C106.179 156.235 106.602 156.161 107.05 156.161C107.498 156.161 107.946 156.235 108.319 156.409C108.717 156.557 109.041 156.779 109.315 157.076L108.817 157.571C108.593 157.348 108.344 157.15 108.02 157.027C107.722 156.903 107.373 156.829 107.025 156.829C106.552 156.829 106.129 156.928 105.756 157.15C105.382 157.373 105.084 157.67 104.884 158.041C104.685 158.411 104.561 158.857 104.561 159.326C104.561 159.796 104.66 160.241 104.884 160.612C105.084 160.983 105.382 161.28 105.756 161.502C106.129 161.725 106.552 161.824 107.025 161.824C107.398 161.824 107.722 161.75 108.02 161.626C108.319 161.552 108.593 161.379 108.817 161.131Z" fill="white"/>
<path d="M110.036 159.376C110.036 158.931 110.111 158.51 110.285 158.115C110.435 157.719 110.659 157.398 110.957 157.101C111.231 156.829 111.579 156.606 111.978 156.433C112.376 156.26 112.799 156.186 113.247 156.186C113.695 156.186 114.118 156.26 114.516 156.433C114.915 156.606 115.238 156.804 115.537 157.101C115.811 157.373 116.035 157.719 116.209 158.115C116.383 158.51 116.458 158.931 116.458 159.376C116.458 159.821 116.383 160.241 116.209 160.637C116.035 161.033 115.835 161.354 115.537 161.651C115.263 161.923 114.915 162.145 114.516 162.318C114.118 162.491 113.695 162.566 113.247 162.566C112.799 162.566 112.376 162.491 111.978 162.318C111.579 162.145 111.256 161.947 110.957 161.651C110.683 161.379 110.459 161.033 110.285 160.637C110.111 160.241 110.036 159.821 110.036 159.376ZM110.783 159.376C110.783 159.846 110.883 160.291 111.107 160.662C111.306 161.033 111.604 161.329 111.978 161.552C112.351 161.774 112.774 161.873 113.247 161.873C113.72 161.873 114.143 161.774 114.516 161.552C114.89 161.329 115.163 161.033 115.387 160.662C115.611 160.291 115.711 159.846 115.711 159.376C115.711 158.881 115.611 158.461 115.387 158.09C115.163 157.719 114.89 157.422 114.516 157.2C114.143 156.977 113.72 156.878 113.247 156.878C112.774 156.878 112.351 156.977 111.978 157.2C111.604 157.422 111.306 157.719 111.107 158.09C110.883 158.461 110.783 158.881 110.783 159.376Z" fill="white"/>
<path d="M118.075 156.335L121.883 161.28V156.335H122.605V162.418H121.883L118.075 157.472V162.418H117.379V156.335H118.075Z" fill="white"/>
<path d="M128.554 161.131L129.051 161.626C128.778 161.898 128.429 162.121 128.056 162.294C127.658 162.442 127.235 162.541 126.787 162.541C126.339 162.541 125.915 162.467 125.517 162.294C125.119 162.121 124.795 161.923 124.497 161.626C124.223 161.354 123.999 161.008 123.825 160.612C123.651 160.217 123.576 159.796 123.576 159.351C123.576 158.906 123.651 158.486 123.825 158.09C123.999 157.694 124.198 157.373 124.497 157.076C124.771 156.804 125.119 156.582 125.517 156.409C125.915 156.235 126.339 156.161 126.787 156.161C127.235 156.161 127.683 156.235 128.056 156.409C128.454 156.557 128.778 156.779 129.051 157.076L128.554 157.571C128.33 157.348 128.081 157.15 127.757 157.027C127.459 156.903 127.11 156.829 126.762 156.829C126.289 156.829 125.866 156.928 125.492 157.15C125.119 157.373 124.82 157.67 124.621 158.041C124.422 158.411 124.298 158.857 124.298 159.326C124.298 159.796 124.397 160.241 124.621 160.612C124.82 160.983 125.119 161.28 125.492 161.502C125.866 161.725 126.289 161.824 126.762 161.824C127.135 161.824 127.459 161.75 127.757 161.626C128.056 161.552 128.33 161.379 128.554 161.131Z" fill="white"/>
<path d="M130.769 156.335V162.418H130.047V156.335H130.769Z" fill="white"/>
<path d="M132.088 156.335H135.597V156.978H132.81V158.956H135.448V159.599H132.81V161.75H135.722V162.393H132.088V156.335Z" fill="white"/>
<path d="M136.966 156.335H138.907C139.579 156.335 140.077 156.483 140.451 156.805C140.824 157.102 140.998 157.547 140.998 158.091C140.998 158.511 140.874 158.857 140.65 159.154C140.426 159.426 140.102 159.624 139.679 159.747L141.247 162.443H140.426L138.907 159.846H137.638V162.443H136.916V156.335H136.966ZM138.758 159.154C139.256 159.154 139.629 159.055 139.878 158.882C140.127 158.709 140.276 158.412 140.276 158.066C140.276 157.72 140.152 157.448 139.878 157.25C139.629 157.077 139.231 156.978 138.733 156.978H137.663V159.179H138.758V159.154Z" fill="white"/>
<path d="M145.08 156.211C145.528 156.211 145.976 156.285 146.349 156.458C146.747 156.607 147.071 156.829 147.345 157.126L146.822 157.596C146.598 157.373 146.349 157.2 146.051 157.076C145.752 156.953 145.428 156.879 145.055 156.879C144.582 156.879 144.184 156.977 143.811 157.2C143.437 157.423 143.139 157.719 142.939 158.09C142.715 158.461 142.616 158.906 142.616 159.376C142.616 159.846 142.715 160.291 142.939 160.662C143.163 161.033 143.437 161.329 143.811 161.552C144.184 161.775 144.582 161.873 145.055 161.873C145.478 161.873 145.827 161.775 146.15 161.601C146.474 161.428 146.747 161.181 146.947 160.86C147.146 160.538 147.27 160.192 147.295 159.772H145.03V159.129H148.017C148.017 159.203 148.042 159.277 148.042 159.351C148.042 159.425 148.042 159.5 148.042 159.599C148.042 160.019 147.967 160.415 147.818 160.761C147.668 161.107 147.469 161.428 147.195 161.676C146.922 161.948 146.623 162.145 146.25 162.294C145.876 162.442 145.478 162.516 145.055 162.516C144.607 162.516 144.184 162.442 143.811 162.269C143.437 162.096 143.089 161.898 142.815 161.601C142.541 161.329 142.317 160.983 142.143 160.588C141.969 160.192 141.894 159.772 141.894 159.327C141.894 158.881 141.969 158.461 142.143 158.065C142.317 157.67 142.516 157.348 142.815 157.052C143.089 156.78 143.437 156.557 143.835 156.384C144.209 156.285 144.632 156.211 145.08 156.211Z" fill="white"/>
<path d="M149.012 156.335H152.522V156.978H149.734V158.956H152.372V159.599H149.734V161.75H152.646V162.393H149.012V156.335Z" fill="white"/>
<path d="M217.905 254.848H170.765C168.5 253.34 156.778 245.377 151.924 239.468C150.904 238.207 147.121 227.376 144.234 218.598C142.417 213.108 140.948 208.41 140.724 207.322C140.65 206.951 140.575 206.209 140.55 205.196C140.426 201.61 140.6 194.662 140.774 189.148V189.123V189.049C140.774 188.801 140.799 188.579 140.799 188.332C140.799 188.307 140.799 188.282 140.799 188.257C140.824 187.293 140.874 186.403 140.899 185.587C140.973 183.534 141.023 182.001 141.048 181.383V181.111C141.123 181.062 143.388 179.875 146.424 182.026C147.146 182.545 147.843 183.806 148.44 185.463C148.838 186.526 149.212 187.738 149.56 188.999C150.879 193.92 151.825 199.78 152.348 201.338C153.169 203.885 162.801 215.037 163.398 215.729L163.423 215.754V198.124L156.156 178.787L153.169 170.849L151.676 166.868C151.676 166.868 149.386 163.11 147.444 158.609C146.598 156.631 145.827 154.505 145.354 152.502C145.229 152.032 145.13 151.537 145.055 151.092C144.781 149.386 144.756 147.804 145.155 146.518C145.852 144.218 147.444 143.798 148.664 143.847C148.788 143.847 148.913 143.872 149.037 143.872C149.162 143.897 149.286 143.897 149.386 143.946C149.61 143.996 149.809 144.095 149.983 144.193C150.307 144.367 150.556 144.614 150.78 144.935C150.78 144.935 151.8 146.27 153.194 148.051C154.09 149.238 155.16 150.623 156.18 151.933C157.997 154.307 159.69 156.508 160.138 157.15C162.602 160.637 169.347 172.036 169.347 172.036L177.236 172.358C178.481 172.407 179.676 172.902 180.596 173.743C183.409 176.339 189.457 181.977 190.179 182.817C190.179 183.089 194.883 185.34 198.516 187.343C201.105 188.431 206.058 192.288 206.058 192.288C207.078 193.178 207.85 194.068 208.248 194.934C209.94 198.593 214.52 230.393 216.71 246.119C217.407 251.188 217.855 254.576 217.905 254.848Z" fill="#FFCBBB"/>
<path d="M169.347 172.036C169.347 172.036 176.664 183.881 177.61 184.425C178.58 184.969 182.339 185.711 182.762 184.425C183.21 183.139 169.347 172.036 169.347 172.036Z" fill="#F7A794"/>
<path d="M206.058 192.337L206.033 192.313C206.033 192.313 201.105 188.455 198.492 187.367C195.156 185.537 190.925 183.485 190.253 182.966C191.025 183.856 196.476 189.964 198.566 190.433C200.408 190.804 204.589 191.942 206.058 192.337Z" fill="#F7A794"/>
<path d="M163.398 215.779V198.148C163.398 198.148 167.604 205.146 167.928 209.004C168.276 212.836 166.186 219.068 163.398 215.779Z" fill="#F7A794"/>
<path d="M148.116 151.068C147.494 150.029 146.399 148.125 146.026 147.037C145.926 146.74 145.926 146.122 146.299 145.479C146.399 145.405 146.499 145.331 146.623 145.232C146.872 145.059 147.121 144.91 147.395 144.812C147.718 144.688 148.042 144.638 148.39 144.638C148.689 144.638 149.012 144.812 149.236 145.133C149.958 146.196 150.904 147.63 151.526 148.941C151.8 149.51 151.85 150.153 151.675 150.647L150.157 151.76C149.51 152.23 148.614 151.933 148.116 151.068Z" fill="#F9D8CF"/>
<path d="M194.211 247.603L180.124 254.848H170.74C168.476 253.34 156.753 245.377 151.9 239.468C150.879 238.207 147.096 227.376 144.209 218.598C144.582 219.76 152.671 236.847 154.961 238.8C157.251 240.729 169.322 252.054 172.657 251.93C175.892 251.831 193.066 247.9 194.136 247.652C194.186 247.603 194.211 247.603 194.211 247.603Z" fill="#F7A794"/>
<path d="M140.774 188.233C141.62 187.911 142.84 187.713 143.412 188.678C144.333 190.186 140.948 203.489 140.525 205.171L140.774 188.233Z" fill="#F7A794"/>
<path d="M141.048 181.086L140.749 189.147C140.749 189.147 142.442 189.42 143.412 188.702C144.383 187.961 143.885 180.987 141.048 181.086Z" fill="#F9D8CF"/>
<path d="M37.6843 107.449C55.0452 107.449 69.119 93.4662 69.119 76.218C69.119 58.9699 55.0452 44.9875 37.6843 44.9875C20.3234 44.9875 6.24965 58.9699 6.24965 76.218C6.24965 93.4662 20.3234 107.449 37.6843 107.449Z" fill="#EDEDED"/>
<path d="M73.2756 83.1415C70.1147 99.8571 55.3307 112.518 37.56 112.518" stroke="#FBC02D" stroke-width="2" stroke-miterlimit="10"/>
<path d="M10.1573 100.129C4.60705 93.799 1.24706 85.5154 1.24706 76.4405C1.24706 56.5103 17.5244 40.3387 37.5848 40.3387C55.9777 40.3387 71.1848 53.9387 73.5991 71.5445" stroke="#FBC02D" stroke-width="2" stroke-miterlimit="10"/>
<path d="M41.343 59.6509H31.3874V60.8873H41.343V59.6509Z" fill="#1C1C1C"/>
<path d="M45.3252 60.64H27.1563V92.2909H45.3252V60.64Z" fill="#434343"/>
<path d="M32.6319 63.36H30.143V65.8327H32.6319V63.36Z" fill="white"/>
<path d="M35.8674 63.36H33.3785V65.8327H35.8674V63.36Z" fill="white"/>
<path d="M39.103 63.36H36.6141V65.8327H39.103V63.36Z" fill="white"/>
<path d="M42.3385 63.36H39.8497V65.8327H42.3385V63.36Z" fill="white"/>
<path d="M32.6319 66.8218H30.143V69.2945H32.6319V66.8218Z" fill="white"/>
<path d="M35.8674 66.8218H33.3785V69.2945H35.8674V66.8218Z" fill="white"/>
<path d="M39.103 66.8218H36.6141V69.2945H39.103V66.8218Z" fill="white"/>
<path d="M42.3385 66.8218H39.8497V69.2945H42.3385V66.8218Z" fill="white"/>
<path d="M32.6319 70.2836H30.143V72.7564H32.6319V70.2836Z" fill="white"/>
<path d="M35.8674 70.2836H33.3785V72.7564H35.8674V70.2836Z" fill="white"/>
<path d="M39.103 70.2836H36.6141V72.7564H39.103V70.2836Z" fill="white"/>
<path d="M42.3385 70.2836H39.8497V72.7564H42.3385V70.2836Z" fill="white"/>
<path d="M32.6319 73.7455H30.143V76.2182H32.6319V73.7455Z" fill="white"/>
<path d="M35.8674 73.7455H33.3785V76.2182H35.8674V73.7455Z" fill="white"/>
<path d="M39.103 73.7455H36.6141V76.2182H39.103V73.7455Z" fill="white"/>
<path d="M42.3385 73.7455H39.8497V76.2182H42.3385V73.7455Z" fill="white"/>
<path d="M32.6319 77.2073H30.143V79.68H32.6319V77.2073Z" fill="white"/>
<path d="M35.8674 77.2073H33.3785V79.68H35.8674V77.2073Z" fill="white"/>
<path d="M39.103 77.2073H36.6141V79.68H39.103V77.2073Z" fill="white"/>
<path d="M42.3385 77.2073H39.8497V79.68H42.3385V77.2073Z" fill="white"/>
<path d="M32.6319 80.6691H30.143V83.1419H32.6319V80.6691Z" fill="white"/>
<path d="M35.8674 80.6691H33.3785V83.1419H35.8674V80.6691Z" fill="white"/>
<path d="M39.103 80.6691H36.6141V83.1419H39.103V80.6691Z" fill="white"/>
<path d="M42.3385 80.6691H39.8497V83.1419H42.3385V80.6691Z" fill="white"/>
<path d="M33.6274 86.1091H30.143V90.0655H33.6274V86.1091Z" fill="white"/>
<path d="M42.0897 86.1091H38.6052V90.0655H42.0897V86.1091Z" fill="white"/>
<path d="M38.1074 86.1091H34.1252V90.0655H38.1074V86.1091Z" fill="white"/>
<path d="M42.3385 84.6255H30.143V85.6145H42.3385V84.6255Z" fill="#1C1C1C"/>
<path d="M42.5874 90.0655H29.8941V90.8073H42.5874V90.0655Z" fill="#EDEDED"/>
<path d="M43.0852 90.8073H29.1474V91.5491H43.0852V90.8073Z" fill="#D8D8D8"/>
<path d="M44.0807 91.5491H28.1519V92.2909H44.0807V91.5491Z" fill="#C9C9C9"/>
<path d="M46.5697 65.0909H45.3252V66.08H46.5697V65.0909Z" fill="#1C1C1C"/>
<path d="M46.5697 79.68H45.3252V80.6691H46.5697V79.68Z" fill="#1C1C1C"/>
<path d="M51.2986 63.8546H45.5741V81.6582H51.2986V63.8546Z" fill="#FBC02D"/>
<path d="M48.3119 66.9455C48.3119 68.8989 49.5563 70.5804 51.2986 71.2233V63.8546H49.5314C48.7599 64.6706 48.3119 65.7585 48.3119 66.9455Z" fill="#F7CC6D"/>
<path d="M47.6152 67.9839V66.253H47.8143V67.0442H48.8098V66.253H49.0089V67.9839H48.8098V67.2173H47.8143V67.9839H47.6152Z" fill="black"/>
<path d="M47.3911 69.9372C47.3911 69.8136 47.416 69.6899 47.4658 69.591C47.5155 69.4921 47.5653 69.3932 47.6649 69.2943C47.7396 69.2201 47.8391 69.1459 47.9635 69.0965C48.0631 69.047 48.1876 69.0223 48.312 69.0223C48.4364 69.0223 48.5609 69.047 48.6604 69.0965C48.76 69.1459 48.8596 69.1954 48.9591 69.2943C49.0338 69.3685 49.1084 69.4674 49.1582 69.591C49.208 69.7147 49.2329 69.8136 49.2329 69.9372C49.2329 70.0608 49.208 70.1845 49.1582 70.2834C49.1084 70.3823 49.0587 70.4812 48.9591 70.5801C48.8844 70.6543 48.7849 70.7285 48.6604 70.7779C48.5609 70.8274 48.4364 70.8521 48.312 70.8521C48.1876 70.8521 48.0631 70.8274 47.9635 70.7779C47.864 70.7285 47.7644 70.679 47.6649 70.5801C47.5902 70.5059 47.5155 70.407 47.4658 70.2834C47.416 70.1597 47.3911 70.0608 47.3911 69.9372ZM47.6151 69.9372C47.6151 70.0856 47.64 70.1845 47.7147 70.3081C47.7893 70.4317 47.864 70.5059 47.9635 70.5554C48.0631 70.6048 48.1876 70.6543 48.312 70.6543C48.4364 70.6543 48.5609 70.6296 48.6604 70.5554C48.76 70.5059 48.8596 70.407 48.9093 70.3081C48.9591 70.2092 49.0089 70.0856 49.0089 69.9372C49.0089 69.7888 48.984 69.6899 48.9093 69.5663C48.8596 69.4674 48.76 69.3685 48.6604 69.319C48.5609 69.2696 48.4364 69.2201 48.312 69.2201C48.1876 69.2201 48.0631 69.2448 47.9635 69.319C47.864 69.3932 47.7644 69.4674 47.7147 69.5663C47.6649 69.6652 47.6151 69.8136 47.6151 69.9372Z" fill="black"/>
<path d="M47.6648 72.0887V71.9156H48.9342V72.0887H48.3866V73.6217H48.1875V72.0887H47.6648Z" fill="black"/>
<path d="M47.7893 74.7346H48.7849V74.9077H47.9884V75.4764H48.7351V75.6495H47.9884V76.2676H48.8097V76.4407H47.7893V74.7346Z" fill="black"/>
<path d="M48.8597 79.2841H47.8392V77.5532H48.0383V79.0863H48.8597V79.2841Z" fill="black"/>
<path d="M53.663 60.1207C54.2604 59.9971 54.7084 59.4778 54.7084 58.8349C54.7084 58.1426 54.1857 57.5985 53.4888 57.5491C53.439 56.9062 52.9413 56.4116 52.319 56.3622C51.9706 55.5462 51.1493 54.9527 50.1786 54.9527C49.0088 54.9527 48.0382 55.8429 47.8888 56.9556C47.8142 56.9556 47.7395 56.9309 47.6648 56.9309C46.7688 56.9309 46.047 57.648 46.047 58.5382C46.047 59.2305 46.495 59.824 47.1173 60.0466C47.2417 60.096 47.3662 60.1455 47.4906 60.1455H53.439C53.4639 60.1455 53.4639 60.1455 53.4888 60.1455C53.5137 60.1455 53.5137 60.1455 53.5386 60.1455C53.5884 60.1455 53.6133 60.1455 53.663 60.1207Z" fill="white"/>
<path d="M26.7582 67.6626C27.3804 67.5389 27.8533 66.9949 27.8533 66.3273C27.8533 65.6102 27.3057 65.0167 26.5839 64.9673C26.5342 64.2997 26.0115 63.7804 25.3395 63.7062C24.9662 62.8407 24.1199 62.2473 23.0995 62.2473C21.855 62.2473 20.8346 63.1622 20.7102 64.3491C20.6355 64.3491 20.5608 64.3244 20.4862 64.3244C19.5653 64.3244 18.7937 65.0662 18.7937 66.0058C18.7937 66.7229 19.2666 67.3411 19.9137 67.5884C20.0382 67.6378 20.1626 67.6873 20.3119 67.6873H26.5342C26.5591 67.6873 26.5839 67.6873 26.5839 67.6873C26.6088 67.6873 26.6088 67.6873 26.6337 67.6873C26.6835 67.6873 26.7333 67.6873 26.7582 67.6626Z" fill="white"/>
<path d="M22.8259 87.469C22.6019 87.1228 22.4276 86.5293 22.8507 86.0348C23.2739 85.565 22.801 85.3671 22.7263 84.749C22.6765 84.1555 23.473 84.0813 23.4232 83.3148C23.3983 82.9933 23.6223 82.474 23.9956 82.4493C24.4436 82.3999 24.7174 82.9439 24.6925 83.3148C24.6427 84.106 25.4392 84.1555 25.3894 84.749C25.3396 85.3424 24.8667 85.5402 25.265 86.0348C25.6881 86.5046 25.489 87.0981 25.2898 87.469C25.0907 87.8399 25.5387 88.4333 25.3396 88.9526C25.1405 89.4719 24.6676 90.2384 24.0703 90.2384C23.473 90.2632 23.025 89.4966 22.801 88.9526C22.577 88.4086 23.0499 87.8151 22.8259 87.469Z" fill="#D8D6D6"/>
<path d="M24.0452 83.7351V92.2165H24.095V83.7351C24.095 83.7103 24.095 83.7103 24.0701 83.7103C24.0452 83.7103 24.0452 83.7103 24.0452 83.7351Z" fill="#1C1C1C"/>
<path d="M24.0452 85.5895C24.0701 85.5895 24.0701 85.5895 24.0452 85.5895L24.7172 84.7735V84.7488H24.6923L24.0452 85.5401C24.0203 85.5648 24.0452 85.5648 24.0452 85.5895Z" fill="#1C1C1C"/>
<path d="M24.0453 89.7192C24.0702 89.7192 24.0702 89.7192 24.0453 89.7192C24.0702 89.6944 24.0702 89.6944 24.0702 89.6944L23.2986 89.0021H23.2737V89.0268L24.0453 89.7192Z" fill="#1C1C1C"/>
<path d="M24.0452 84.2799C24.0701 84.2799 24.0701 84.2799 24.0452 84.2799L24.3439 83.9832V83.9585H24.319L24.0452 84.2552V84.2799Z" fill="#1C1C1C"/>
<path d="M24.0451 86.4551C24.07 86.4551 24.07 86.4551 24.0451 86.4551C24.07 86.4303 24.07 86.4303 24.07 86.4303L23.3483 85.8121H23.3234V85.8369L24.0451 86.4551Z" fill="#1C1C1C"/>
<path d="M24.0453 87.5926C24.0702 87.5926 24.0702 87.5926 24.0453 87.5926L24.9413 86.6777V86.653H24.9164L24.0204 87.5679C24.0453 87.5679 24.0453 87.5926 24.0453 87.5926Z" fill="#1C1C1C"/>
<path d="M49.8301 87.469C50.0541 87.1228 50.2283 86.5293 49.8052 86.0348C49.3821 85.5402 49.855 85.3671 49.9296 84.749C49.9794 84.1555 49.183 84.0813 49.2327 83.3148C49.2576 82.9933 49.0336 82.474 48.6603 82.4493C48.2123 82.3999 47.9385 82.9439 47.9634 83.3148C48.0132 84.106 47.2168 84.1555 47.2665 84.749C47.3163 85.3424 47.7892 85.5402 47.391 86.0348C46.9679 86.5046 47.167 87.0981 47.3661 87.469C47.5652 87.8399 47.1172 88.4333 47.3163 88.9526C47.5154 89.4719 47.9883 90.2384 48.5856 90.2384C49.183 90.2632 49.631 89.4966 49.855 88.9526C50.079 88.4086 49.6061 87.8151 49.8301 87.469Z" fill="#D8D6D6"/>
<path d="M48.6105 83.7351V92.2165H48.5608V83.7351C48.5608 83.7103 48.5608 83.7103 48.5857 83.7103C48.6105 83.7103 48.6105 83.7103 48.6105 83.7351Z" fill="#1C1C1C"/>
<path d="M48.6105 85.5895C48.5857 85.5895 48.5857 85.5895 48.6105 85.5895L47.9385 84.7735V84.7488H47.9634L48.6105 85.5401C48.6105 85.5648 48.6105 85.5648 48.6105 85.5895Z" fill="#1C1C1C"/>
<path d="M48.6105 89.7192C48.5856 89.7192 48.5856 89.7192 48.6105 89.7192C48.5856 89.6944 48.5856 89.6944 48.5856 89.6944L49.3571 89.0021H49.382V89.0268L48.6105 89.7192Z" fill="#1C1C1C"/>
<path d="M48.6105 84.2799C48.5857 84.2799 48.5857 84.2799 48.6105 84.2799L48.3119 83.9832V83.9585H48.3368L48.6105 84.2552C48.6105 84.2552 48.6105 84.2799 48.6105 84.2799Z" fill="#1C1C1C"/>
<path d="M48.6105 86.4551C48.5856 86.4551 48.5856 86.4551 48.6105 86.4551C48.5856 86.4303 48.5856 86.4303 48.5856 86.4303L49.3074 85.8121H49.3322V85.8369L48.6105 86.4551Z" fill="#1C1C1C"/>
<path d="M48.6105 87.5926C48.5856 87.5926 48.5856 87.5926 48.6105 87.5926L47.7145 86.6777V86.653H47.7393L48.6353 87.5679C48.6105 87.5679 48.6105 87.5926 48.6105 87.5926Z" fill="#1C1C1C"/>
<path d="M17.1511 84.9221C16.8027 84.3534 16.504 83.3643 17.176 82.5977C17.848 81.8312 17.0764 81.5097 16.9769 80.5206C16.8773 79.5315 18.1716 79.4326 18.0969 78.1715C18.072 77.6523 18.4204 76.8116 19.0427 76.7374C19.7893 76.6632 20.2373 77.5534 20.1876 78.1715C20.1129 79.4574 21.4071 79.5315 21.3076 80.5206C21.208 81.5097 20.4364 81.8312 21.1084 82.5977C21.7804 83.3643 21.4818 84.3534 21.1333 84.9221C20.7849 85.4908 21.5564 86.4799 21.208 87.3454C20.8596 88.2108 20.1129 89.4719 19.1422 89.4225C18.1716 89.4472 17.4 88.1861 17.0764 87.3454C16.728 86.4799 17.4996 85.4908 17.1511 84.9221Z" fill="#D8D6D6"/>
<path d="M19.1174 78.8144V92.7111H19.1921V78.8144C19.1921 78.7896 19.1672 78.7649 19.1672 78.7649C19.1174 78.7649 19.1174 78.7896 19.1174 78.8144Z" fill="#1C1C1C"/>
<path d="M19.1424 81.8558H19.1673L20.2375 80.5453C20.2375 80.5205 20.2375 80.5205 20.2375 80.4958C20.2127 80.4958 20.2127 80.4958 20.1878 80.4958L19.1175 81.8064C19.0926 81.8311 19.0926 81.8311 19.1424 81.8558C19.1424 81.8558 19.1175 81.8558 19.1424 81.8558Z" fill="#1C1C1C"/>
<path d="M19.1423 88.631C19.1423 88.631 19.1672 88.631 19.1423 88.631C19.1672 88.6062 19.1672 88.5815 19.1672 88.5815L17.9227 87.4688C17.8978 87.4688 17.8978 87.4688 17.8729 87.4688C17.8729 87.4935 17.8729 87.4935 17.8729 87.5182L19.1423 88.631C19.1423 88.631 19.1174 88.631 19.1423 88.631Z" fill="#1C1C1C"/>
<path d="M19.1424 79.7291C19.1424 79.7291 19.1673 79.7291 19.1424 79.7291L19.6153 79.2346C19.6153 79.2099 19.6153 79.2099 19.6153 79.1851C19.5904 79.1851 19.5904 79.1851 19.5655 79.1851L19.1175 79.655C19.0926 79.6797 19.0926 79.7044 19.1424 79.7291C19.1424 79.7291 19.1175 79.7291 19.1424 79.7291Z" fill="#1C1C1C"/>
<path d="M19.1424 83.2653C19.1424 83.2653 19.1673 83.2653 19.1424 83.2653C19.1673 83.2406 19.1673 83.2159 19.1673 83.2159L17.9975 82.2021C17.9726 82.2021 17.9726 82.2021 17.9477 82.2021C17.9477 82.2268 17.9477 82.2268 17.9477 82.2515L19.1424 83.2653C19.1424 83.2653 19.1175 83.2653 19.1424 83.2653Z" fill="#1C1C1C"/>
<path d="M19.1424 85.1445C19.1424 85.1445 19.1673 85.1445 19.1424 85.1445L20.6109 83.6362C20.6358 83.6114 20.6109 83.6114 20.6109 83.5867C20.586 83.562 20.586 83.5867 20.5611 83.5867L19.1175 85.0704C19.0926 85.0951 19.0926 85.1198 19.1424 85.1445C19.1424 85.1445 19.1175 85.1445 19.1424 85.1445Z" fill="#1C1C1C"/>
<path d="M52.0952 77.9738C52.4436 77.4051 52.7423 76.416 52.0703 75.6494C51.3983 74.8829 52.1699 74.5614 52.2694 73.5723C52.369 72.5832 51.0748 72.4843 51.1494 71.2232C51.1743 70.704 50.8259 69.8632 50.2036 69.7891C49.457 69.7149 49.009 70.6051 49.0588 71.2232C49.1334 72.5091 47.8392 72.5832 47.9388 73.5723C48.0383 74.5614 48.8099 74.8829 48.1379 75.6494C47.4659 76.416 47.7645 77.4051 48.113 77.9738C48.4614 78.5425 47.6899 79.5316 48.0383 80.3971C48.3868 81.2625 49.1334 82.5236 50.1041 82.4742C51.0748 82.4989 51.8463 81.2378 52.1699 80.3971C52.4934 79.5316 51.7468 78.5425 52.0952 77.9738Z" fill="#D8D6D6"/>
<path d="M50.1288 71.8661V85.7628H50.0541V71.8661C50.0541 71.8413 50.079 71.8166 50.079 71.8166C50.1039 71.8166 50.1288 71.8413 50.1288 71.8661Z" fill="#1C1C1C"/>
<path d="M50.104 74.9075H50.0791L49.0089 73.597C49.0089 73.5723 49.0089 73.5723 49.0089 73.5475C49.0338 73.5475 49.0338 73.5475 49.0587 73.5475L50.1289 74.8581C50.1289 74.8828 50.1289 74.8828 50.104 74.9075Z" fill="#1C1C1C"/>
<path d="M50.1041 81.6827C50.0792 81.6827 50.0792 81.6827 50.1041 81.6827C50.0792 81.6579 50.0792 81.6332 50.0792 81.6332L51.3237 80.5205C51.3486 80.5205 51.3486 80.5205 51.3734 80.5205C51.3734 80.5452 51.3734 80.5452 51.3734 80.5699L50.1041 81.6827Z" fill="#1C1C1C"/>
<path d="M50.104 72.7808C50.0791 72.7808 50.0791 72.7808 50.104 72.7808L49.6311 72.2863C49.6311 72.2616 49.6311 72.2616 49.6311 72.2368C49.656 72.2368 49.656 72.2368 49.6809 72.2368L50.1289 72.7066C50.1289 72.7314 50.1289 72.7561 50.104 72.7808Z" fill="#1C1C1C"/>
<path d="M50.1041 76.317C50.0792 76.317 50.0792 76.317 50.1041 76.317C50.0792 76.2923 50.0792 76.2676 50.0792 76.2676L51.249 75.2538C51.2739 75.2538 51.2739 75.2538 51.2988 75.2538C51.2988 75.2785 51.2988 75.2785 51.2988 75.3032L50.1041 76.317Z" fill="#1C1C1C"/>
<path d="M50.104 78.1962C50.0791 78.1962 50.0791 78.1962 50.104 78.1962L48.6356 76.6879C48.6107 76.6631 48.6356 76.6631 48.6356 76.6384C48.6604 76.6137 48.6604 76.6384 48.6853 76.6384L50.1289 78.1221C50.1289 78.1468 50.1289 78.1715 50.104 78.1962Z" fill="#1C1C1C"/>
<path d="M114.939 68.5525C132.3 68.5525 146.374 54.5701 146.374 37.3219C146.374 20.0738 132.3 6.0914 114.939 6.0914C97.5786 6.0914 83.5048 20.0738 83.5048 37.3219C83.5048 54.5701 97.5786 68.5525 114.939 68.5525Z" fill="#EDEDED"/>
<path d="M91.0959 10.0726C97.4675 4.55843 105.805 1.22025 114.939 1.22025C135 1.22025 151.277 17.3919 151.277 37.3221C151.277 55.5955 137.588 70.7039 119.867 73.1024" stroke="#FBC02D" stroke-width="2" stroke-miterlimit="10"/>
<path d="M114.939 55.8675C125.249 55.8675 133.606 47.5644 133.606 37.3221C133.606 27.0797 125.249 18.7766 114.939 18.7766C104.63 18.7766 96.2728 27.0797 96.2728 37.3221C96.2728 47.5644 104.63 55.8675 114.939 55.8675Z" fill="#434343"/>
<path d="M131.59 28.9148C131.316 29.6072 130.844 30.4232 130.196 31.6101C128.703 34.3301 128.454 33.5883 119.992 33.8355C117.752 33.9097 116.657 33.9839 116.209 34.0828C116.159 34.157 116.134 34.2312 116.084 34.2806C116.607 34.5279 118.897 34.7999 118.474 35.0719C117.727 35.5664 118.474 35.5664 116.732 35.0719C115.86 34.8246 115.86 34.6515 116.084 34.2806C115.935 34.2064 115.935 34.1323 116.209 34.0828C116.433 33.7119 116.756 33.1926 116.756 32.3519C116.756 30.3737 116.756 30.621 114.019 30.3737C111.281 30.1264 113.521 27.1592 111.779 25.181C110.036 23.2028 111.032 23.4501 111.53 21.4719C111.804 20.3839 111.629 19.8399 111.132 19.1475C108.568 19.6668 106.179 20.7301 104.113 22.189L106.577 21.5708C106.577 21.5708 105.283 23.7221 103.292 25.453C101.3 27.1839 101.3 27.1839 101.3 27.1839C100.803 27.9257 100.305 29.6566 101.3 29.9039C102.296 30.1512 104.785 25.9475 104.536 28.4202C104.287 30.893 105.034 30.1512 104.536 30.893C104.038 31.6348 104.287 31.8821 102.794 30.893C101.3 29.9039 101.052 30.893 100.803 31.6348C100.554 32.3766 100.554 31.6348 100.803 33.1184C101.052 34.6021 99.3093 37.3221 97.8159 37.3221C96.3226 37.3221 97.3182 41.0312 96.3226 37.3221C96.2977 37.2479 96.2728 37.149 96.248 37.0748C96.248 37.149 96.248 37.2479 96.248 37.3221C96.248 47.5592 104.611 55.8675 114.915 55.8675C125.219 55.8675 133.581 47.5592 133.581 37.3221C133.606 34.2806 132.884 31.437 131.59 28.9148ZM124.97 45.4821C123.228 44.9875 123.228 44.493 122.481 46.2239C121.734 47.9548 121.983 46.9657 121.236 47.9548C120.49 48.9439 125.716 48.6966 119.743 49.933C113.77 51.1693 117.005 51.6639 112.525 51.1693C108.045 50.6748 109.539 51.9112 106.552 50.1802C103.565 48.4493 104.312 49.933 102.321 47.213C100.33 44.493 99.3342 44.7402 99.3342 43.0093C99.3342 41.2784 99.3342 39.053 99.3342 39.053C99.3342 39.053 99.5831 37.5693 102.072 39.053C104.561 40.5366 104.561 40.5366 104.561 40.5366C103.814 38.8057 104.312 36.333 105.805 37.0748C107.299 37.8166 109.041 37.5693 108.294 38.8057C107.548 40.0421 105.805 39.053 107.548 40.5366C109.29 42.0202 109.041 42.7621 111.281 43.2566C113.521 43.7512 114.019 43.0093 116.508 43.2566C118.996 43.5039 118.996 44.9875 119.992 43.5039C120.988 42.0202 121.485 41.2784 122.73 41.773C123.974 42.2675 124.97 41.773 125.716 42.7621C126.463 43.7512 126.712 44.2457 126.961 45.4821C127.21 46.7184 126.712 45.9766 124.97 45.4821ZM130.445 39.053C130.445 39.053 132.536 39.053 131.242 36.7533C130.943 36.2341 131.341 35.5912 131.939 35.5912C131.939 35.5912 131.939 36.333 131.939 37.0748C131.939 37.8166 131.69 38.5584 131.939 39.053C132.188 39.5475 130.445 39.053 130.445 39.053Z" fill="#C6C4C4"/>
<path d="M136.045 22.0902C136.02 21.6451 135.647 21.2742 135.199 21.2247C134.95 20.6313 134.353 20.2109 133.656 20.2109C133.183 20.2109 132.735 20.4087 132.436 20.7302C132.212 20.4087 131.864 20.1862 131.466 20.1367C131.117 19.3207 130.296 18.7273 129.325 18.7273C128.155 18.7273 127.185 19.6175 127.035 20.7302C126.961 20.7302 126.886 20.7055 126.811 20.7055C125.915 20.7055 125.194 21.4226 125.194 22.3127C125.194 23.0051 125.642 23.5986 126.264 23.8211C126.388 23.8706 126.513 23.92 126.637 23.92H131.715H132.586H135.995C136.02 23.92 136.02 23.92 136.045 23.92H136.07C136.095 23.92 136.12 23.92 136.145 23.92C136.568 23.8458 136.916 23.4502 136.916 23.0051C136.916 22.5353 136.543 22.1397 136.045 22.0902Z" fill="white"/>
<path d="M102.52 49.6857C102.47 49.0181 101.947 48.4988 101.275 48.4246C100.902 47.5592 100.056 46.9657 99.0354 46.9657C97.7909 46.9657 96.7705 47.8806 96.646 49.0675C96.5714 49.0675 96.4967 49.0428 96.422 49.0428C96.0487 49.0428 95.7251 49.1664 95.4513 49.3642C95.1527 48.8202 94.5802 48.4493 93.9082 48.4493C93.0122 48.4493 92.2656 49.117 92.166 49.9824C92.1162 49.9824 92.0665 49.9577 91.9918 49.9577C91.3198 49.9577 90.7722 50.5017 90.7722 51.1693C90.7722 51.6886 91.1207 52.1584 91.5936 52.3068C91.6931 52.3563 91.7678 52.381 91.8922 52.381H96.2976H96.422H102.52C102.545 52.381 102.57 52.381 102.57 52.381C102.594 52.381 102.594 52.381 102.619 52.381C102.644 52.381 102.694 52.381 102.719 52.3563C103.341 52.2326 103.814 51.6886 103.814 51.021C103.789 50.3286 103.242 49.7352 102.52 49.6857Z" fill="white"/>
<path d="M115.313 37.2477L110.659 31.9561L109.564 31.6841L110.932 37.6681L115.313 37.2477Z" fill="white"/>
<path d="M110.659 33.3903C110.659 32.9699 110.733 32.5743 110.858 32.2034L110.659 31.9561L109.564 31.6841L110.932 37.6681L115.313 37.2725V37.2477C115.213 37.2477 115.089 37.2725 114.989 37.2725C112.6 37.2477 110.659 35.5168 110.659 33.3903Z" fill="#FBC02D"/>
<path d="M106.527 37.0005L114.641 37.2477L114.367 38.3357L116.01 39.6957L115.587 40.2397" fill="white"/>
<path d="M106.452 31.0413L122.431 31.7089L125.94 33.1184L131.864 37.4209L130.495 38.2369L121.734 34.7009L116.383 34.0827L105.034 31.9809L105.482 31.4616C105.755 31.1649 106.104 31.0165 106.452 31.0413Z" fill="white"/>
<path d="M126.886 33.069C126.986 33.4152 126.836 33.7614 126.563 33.9839C126.015 34.4043 124.721 34.8494 124.173 34.8741C123.427 34.9236 123.352 34.1817 123.352 34.1817L126.264 31.981C126.264 31.981 126.712 32.5745 126.836 32.9701C126.886 33.0196 126.886 33.0443 126.886 33.069Z" fill="#EDEDED"/>
<path d="M126.861 32.9948C126.861 33.0196 126.886 33.0443 126.886 33.069C126.936 33.2916 126.911 33.5141 126.787 33.7119C126.587 33.6625 126.413 33.5636 126.264 33.4152C125.916 33.069 125.841 32.5497 126.065 32.1788L126.289 31.981C126.289 31.981 126.737 32.5992 126.861 32.9948Z" fill="#1C1C1C"/>
<path d="M111.629 39.4486C110.684 39.4239 110.26 38.2369 111.007 37.6188C111.853 36.9264 112.899 36.1104 113.969 35.4922C116.284 34.1322 128.728 26.9366 128.728 26.9366C128.728 26.9366 130.221 26.1206 131.192 26.3926C132.138 26.6646 132.959 26.7882 133.233 27.2086C133.507 27.6042 132.835 28.6922 132.138 29.3846C131.466 30.0522 117.777 37.5446 117.777 37.5446C117.777 37.5446 115.313 38.7562 113.123 39.3002C112.774 39.3744 111.978 39.4733 111.629 39.4486Z" fill="#FBC02D"/>
<path d="M132.486 26.7387C132.113 26.6151 131.665 26.5162 131.192 26.3678C130.246 26.0958 128.728 26.9118 128.728 26.9118C128.728 26.9118 116.283 34.1075 113.969 35.4675C113.645 35.6406 113.347 35.8631 113.023 36.0609C112.899 36.1598 111.953 36.9511 112.451 36.9511C112.948 36.9511 116.906 34.9482 117.652 34.5773C117.727 34.5278 117.827 34.5031 117.901 34.5031L118.499 34.4289C118.648 34.4042 118.772 34.3547 118.897 34.3053L121.61 32.8464C121.859 32.7227 122.058 32.5002 122.157 32.2282C122.232 32.0551 122.356 31.9067 122.531 31.8078L127.956 28.9147C128.081 28.8406 128.18 28.7664 128.28 28.6675L129.201 27.6784C129.4 27.4558 129.674 27.2827 129.972 27.2086C130.744 27.0107 132.163 26.6646 132.486 26.7387Z" fill="white"/>
<path d="M132.536 26.7633C132.561 26.7882 132.561 26.7882 132.536 26.7633V26.7633Z" fill="white"/>
<path d="M132.436 26.7148C132.163 26.6406 131.839 26.5664 131.739 26.5417C131.416 26.4922 130.943 26.3933 130.395 26.6653C129.898 26.9126 129.3 27.6049 129.3 27.6049C129.3 27.6049 129.45 27.5555 129.649 27.4813C130.395 27.1104 131.441 26.7395 132.436 26.7148Z" fill="#1C1C1C"/>
<path d="M110.385 38.4841L105.731 37.2725L105.83 37.1983C106.029 37.0746 106.278 37.0005 106.527 37.0005L113.546 37.1241L110.957 38.6077" fill="white"/>
<path d="M121.61 31.3873C121.286 31.14 120.813 31.1153 120.465 31.3131C119.743 31.7088 118.573 32.5989 118.299 33.1677C118.275 33.1924 118.275 33.2171 118.275 33.2418C118.001 33.9342 118.648 34.4782 119.32 34.132L121.908 32.8215C122.232 32.6484 122.331 32.2528 122.132 31.956C122.008 31.7829 121.834 31.5851 121.709 31.4615C121.659 31.4368 121.635 31.412 121.61 31.3873Z" fill="#1C1C1C"/>
<path d="M121.958 32.6487C121.236 32.6487 120.664 32.1294 120.664 31.4865C120.664 31.3876 120.664 31.3134 120.689 31.2392C120.614 31.2639 120.539 31.2887 120.465 31.3381C119.743 31.7337 118.573 32.6239 118.299 33.1927C118.275 33.2174 118.275 33.2421 118.275 33.2668C118.001 33.9592 118.648 34.5032 119.32 34.157L121.908 32.8465C122.008 32.797 122.083 32.7228 122.132 32.6487C122.083 32.6239 122.008 32.6487 121.958 32.6487Z" fill="#EDEDED"/>
<path d="M123.327 30.4477C123.352 30.4725 123.352 30.4972 123.377 30.5466C123.476 30.7692 123.8 30.5714 123.7 30.3488C123.675 30.3241 123.675 30.2994 123.651 30.2499C123.526 30.0521 123.203 30.2499 123.327 30.4477Z" fill="#434343"/>
<path d="M122.78 30.7197C122.804 30.7444 122.804 30.7691 122.829 30.8186C122.929 31.0411 123.252 30.8433 123.153 30.6208C123.128 30.596 123.128 30.5713 123.103 30.5219C122.979 30.324 122.655 30.5219 122.78 30.7197Z" fill="#434343"/>
<path d="M122.232 31.1403C122.257 31.165 122.257 31.1898 122.282 31.2392C122.381 31.4618 122.705 31.2639 122.605 31.0414C122.58 31.0167 122.58 30.9919 122.555 30.9425C122.431 30.7447 122.107 30.9178 122.232 31.1403Z" fill="#434343"/>
<path d="M123.899 30.1017C123.924 30.1264 123.924 30.1511 123.949 30.2006C124.049 30.4231 124.372 30.2253 124.273 30.0027C124.248 29.978 124.248 29.9533 124.223 29.9038C124.099 29.6813 123.8 29.8791 123.899 30.1017Z" fill="#434343"/>
<path d="M125.642 29.0385C125.667 29.0879 125.691 29.1374 125.691 29.1621C125.741 29.261 125.866 29.2858 125.94 29.2363C126.04 29.1868 126.04 29.0632 126.015 28.989C125.99 28.9396 125.965 28.8901 125.965 28.8654C125.915 28.7665 125.791 28.7418 125.716 28.7912C125.617 28.8407 125.617 28.9396 125.642 29.0385Z" fill="#434343"/>
<path d="M116.433 34.4041C116.458 34.4536 116.483 34.503 116.507 34.5277C116.632 34.7256 116.955 34.5525 116.831 34.3299C116.806 34.2805 116.781 34.231 116.756 34.2063C116.657 34.0085 116.333 34.2063 116.433 34.4041Z" fill="#434343"/>
<path d="M115.885 34.676C115.91 34.7255 115.935 34.7749 115.96 34.7997C116.084 34.9975 116.408 34.8244 116.284 34.6018C116.259 34.5524 116.234 34.5029 116.209 34.4782C116.109 34.2804 115.786 34.4782 115.885 34.676Z" fill="#434343"/>
<path d="M115.213 35.0967C115.238 35.1461 115.263 35.1956 115.288 35.2203C115.412 35.4181 115.736 35.245 115.611 35.0225C115.587 34.973 115.562 34.9236 115.537 34.8988C115.412 34.701 115.089 34.8741 115.213 35.0967Z" fill="#434343"/>
<path d="M114.566 35.4179C114.591 35.4673 114.616 35.492 114.641 35.5415C114.765 35.7393 115.089 35.5662 114.964 35.3437C114.939 35.2942 114.915 35.2695 114.89 35.22C114.765 35.0222 114.442 35.22 114.566 35.4179Z" fill="#434343"/>
<path d="M124.522 29.7803C124.547 29.805 124.547 29.8297 124.571 29.8792C124.671 30.1018 124.995 29.9039 124.895 29.6814C124.87 29.6567 124.87 29.6319 124.845 29.5825C124.746 29.3846 124.422 29.5577 124.522 29.7803Z" fill="#434343"/>
<path d="M125.069 29.3597C125.094 29.3844 125.094 29.4091 125.119 29.4586C125.219 29.6811 125.542 29.4833 125.443 29.2607C125.418 29.236 125.418 29.2113 125.393 29.1618C125.293 28.964 124.97 29.1618 125.069 29.3597Z" fill="#434343"/>
<path d="M37.4354 196.22C54.7963 196.22 68.8701 182.237 68.8701 164.989C68.8701 147.741 54.7963 133.758 37.4354 133.758C20.0745 133.758 6.00076 147.741 6.00076 164.989C6.00076 182.237 20.0745 196.22 37.4354 196.22Z" fill="#EDEDED"/>
<path d="M1.44627 158.214C4.60716 141.498 19.3912 128.838 37.1618 128.838" stroke="#FBC02D" stroke-width="2" stroke-miterlimit="10"/>
<path d="M64.5644 141.251C70.1146 147.581 73.4746 155.865 73.4746 164.939C73.4746 184.87 57.1973 201.041 37.1368 201.041C18.7439 201.041 3.53683 187.441 1.1226 169.835" stroke="#FBC02D" stroke-width="2" stroke-miterlimit="10"/>
<path d="M31.8107 166.918C31.512 164.494 31.4622 159.574 31.736 157.126C31.736 156.656 31.7111 155.246 31.7111 155.246C31.6862 153.565 30.3173 152.23 28.6498 152.254C26.9573 152.279 25.6133 153.639 25.6382 155.296C25.6382 155.296 25.6382 156.705 25.6631 157.175C25.9618 159.598 26.0115 164.519 25.7378 166.967C25.7378 167.758 25.7627 170.083 25.7627 170.083C25.7627 171.072 26.584 171.863 27.5547 171.838L30.0684 171.814C31.064 171.814 31.8604 170.998 31.8355 170.033C31.8355 170.033 31.8107 167.684 31.8107 166.918Z" fill="white"/>
<path d="M29.7145 150.915L27.3998 150.932L27.4147 152.91L29.7293 152.893L29.7145 150.915Z" fill="white"/>
<path d="M25.8373 165.434L31.6613 165.385C31.512 163.134 31.512 160.068 31.6613 157.991L25.7378 158.041C25.912 160.093 25.9369 163.159 25.8373 165.434Z" fill="#FFF263"/>
<path d="M29.927 149.997L27.0656 150.069L27.1015 151.478L29.9628 151.406L29.927 149.997Z" fill="#434343"/>
<path d="M40.9448 160.662C40.3723 160.538 39.7252 160.439 39.3768 159.994C39.1279 159.697 39.0781 159.252 39.2523 158.881C39.4265 158.535 39.7999 158.288 40.1732 158.263C40.447 158.263 40.7457 158.337 40.9697 158.189C41.0692 158.115 41.119 158.041 41.1937 157.942C41.567 157.447 42.1394 157.101 42.7617 157.15C43.3839 157.2 43.9563 157.719 43.9314 158.337C43.9314 158.56 43.8319 158.758 43.8568 158.98C43.8817 159.45 44.2799 159.821 44.5537 160.192C45.2008 161.082 45.2257 162.294 45.1759 163.382C45.151 163.753 45.1012 164.173 44.8772 164.47C44.5288 164.915 43.807 164.989 43.3092 164.717C42.8114 164.445 42.5128 163.901 42.3883 163.332C42.2639 162.763 42.4879 162.096 42.2639 161.577C42.0399 161.033 41.4425 160.785 40.9448 160.662Z" fill="#73BA65"/>
<path d="M53.1154 159.623C53.638 159.425 54.2603 159.549 54.6834 159.92C54.8078 160.044 54.9323 160.192 55.1065 160.241C55.3056 160.291 55.5047 160.217 55.7038 160.217C56.3012 160.167 56.8238 160.884 56.5998 161.453C57.0478 161.552 57.2967 162.096 57.1972 162.541C57.0976 162.986 56.7741 163.357 56.4007 163.654C55.6043 164.321 54.6336 164.791 53.5883 164.717C53.2149 164.692 52.8167 164.593 52.4932 164.766C52.2692 164.89 52.1447 165.137 51.9456 165.261C51.7963 165.36 51.622 165.385 51.4478 165.434C50.5767 165.607 49.6807 165.731 48.8096 165.78C48.1127 165.83 47.3411 165.805 46.8683 165.31C46.3954 164.816 46.3954 164.025 46.7189 163.406C47.0425 162.813 47.6149 162.368 48.1874 162.022C49.0834 161.502 50.054 161.107 51.0745 160.86C51.4229 160.785 51.8958 160.785 52.1696 160.538C52.518 160.241 52.5927 159.821 53.1154 159.623Z" fill="#568E4C"/>
<path d="M41.8159 160.513C41.4923 160.241 41.0941 159.945 41.0941 159.524C41.0692 159.005 41.6666 158.609 41.6417 158.09C41.6168 157.571 40.9946 157.2 41.0692 156.681C41.119 156.236 41.6666 156.013 41.8906 155.593C41.9901 155.42 42.015 155.222 42.0897 155.024C42.3137 154.579 42.8861 154.406 43.3839 154.529C43.8568 154.653 44.255 154.974 44.6034 155.321C44.9021 155.617 45.3252 155.964 45.6986 155.741C45.8479 155.642 45.9226 155.494 46.047 155.37C46.4452 154.925 47.1421 154.974 47.7394 155.049C48.0381 155.098 48.3617 155.148 48.511 155.42C48.5608 155.518 48.5857 155.617 48.6354 155.716C48.7101 155.865 48.8346 155.988 48.9839 156.112C49.3572 156.433 49.7057 156.755 50.079 157.076C50.2532 157.225 50.4274 157.373 50.5519 157.571C50.8257 158.016 50.7012 158.609 50.4274 159.079C50.1786 159.549 49.7803 159.92 49.5066 160.365C49.4319 160.464 49.3821 160.588 49.3821 160.686C49.3821 160.81 49.4568 160.909 49.5066 161.008C49.7057 161.329 49.8052 161.7 49.8301 162.096C49.8301 162.764 49.5066 163.406 49.0088 163.852C48.511 164.297 47.839 164.519 47.1919 164.593C45.9972 164.717 44.7777 164.321 43.8817 163.53C43.3839 163.085 43.0106 162.541 42.4132 162.22C42.2639 162.145 42.1146 162.071 42.0399 161.948C41.8657 161.651 42.2639 161.577 42.3137 161.354C42.3634 161.082 42.0399 160.711 41.8159 160.513Z" fill="#568E4C"/>
<path d="M45.2754 161.972C45.3003 161.799 45.3501 161.626 45.4745 161.502C45.7234 161.23 46.1963 161.23 46.3954 160.934C46.5945 160.637 46.4701 160.192 46.7439 159.969C46.943 159.821 47.2416 159.87 47.3661 159.673C47.4159 159.598 47.4159 159.475 47.4905 159.401C47.615 159.277 47.839 159.326 47.9883 159.228C48.3367 159.03 48.0381 158.412 48.3367 158.164C48.5607 157.966 48.9341 158.14 49.2327 158.065C49.4816 157.966 49.6061 157.694 49.8052 157.497C50.2532 157.002 51.199 157.126 51.5225 157.719C51.5723 157.843 51.6221 157.966 51.7216 158.065C51.871 158.214 52.0701 158.263 52.2692 158.313C52.5927 158.412 52.9661 158.634 52.9412 158.98C52.9412 159.129 52.8416 159.277 52.8416 159.45C52.8416 159.87 53.3892 160.167 53.3394 160.587C53.3145 160.711 53.2399 160.835 53.2399 160.958C53.215 161.131 53.3145 161.28 53.3643 161.428C53.439 161.675 53.4639 161.972 53.3145 162.195C53.215 162.343 53.0656 162.442 52.9412 162.541C52.7172 162.714 52.4683 162.862 52.2443 163.035C51.9705 163.233 51.647 163.431 51.2985 163.481C51.1741 163.481 51.0745 163.481 50.9501 163.53C50.8007 163.604 50.7261 163.753 50.6763 163.901C50.3776 164.593 50.0043 165.385 49.2576 165.533C49.0585 165.582 48.8345 165.558 48.6603 165.657C48.511 165.731 48.3865 165.83 48.2621 165.929C47.8141 166.275 47.1919 166.473 46.6443 166.349C45.1012 165.978 45.0514 163.11 45.2754 161.972Z" fill="#73BA65"/>
<path d="M38.8043 161.725C39.2772 161.305 39.9492 161.156 40.5714 161.181C41.2185 161.206 41.8159 161.354 42.463 161.428C43.5332 161.552 44.6283 161.478 45.6736 161.7C46.7936 161.947 47.8141 162.541 48.8096 163.11C50.4523 164.074 52.1447 165.063 53.4638 166.448C53.5136 166.497 53.5634 166.547 53.5634 166.621C53.5634 166.695 53.5385 166.769 53.4887 166.819C51.4727 169.984 49.4567 173.149 47.4407 176.314C47.2914 176.561 47.1172 176.809 46.8185 176.858C46.6194 176.908 46.4203 176.833 46.2461 176.759C44.9021 176.24 43.6079 175.671 42.3136 175.028C40.9447 174.336 39.551 173.52 38.7047 172.234C38.2816 171.591 38.0327 171.022 38.2567 170.281C38.5305 169.341 38.7794 168.426 38.9287 167.437C39.2274 165.558 39.2025 163.604 38.8043 161.725Z" fill="#B2C1DB"/>
<path d="M50.1785 167.783C50.2283 167.388 50.2532 166.942 50.6016 166.745C50.7012 166.695 50.8256 166.67 50.9252 166.596C51.1243 166.423 51.0745 166.102 51.2487 165.929C51.3732 165.805 51.5474 165.805 51.6719 165.706C51.871 165.558 51.8959 165.31 51.871 165.038C50.9252 164.346 49.9048 163.753 48.8843 163.159C47.8888 162.566 46.8683 161.972 45.7483 161.75C44.703 161.527 43.6079 161.626 42.5376 161.478C42.4132 161.453 42.2639 161.428 42.1394 161.428C41.9901 161.601 41.6665 161.527 41.567 161.75C41.4923 161.948 41.7661 162.096 41.791 162.318C41.8159 162.64 41.2434 162.739 41.2185 163.06C41.2185 163.159 41.2434 163.258 41.2932 163.332C41.4923 163.703 41.7412 164.049 42.0399 164.346C42.2639 164.569 42.5376 164.865 42.4132 165.162C42.2888 165.385 41.9652 165.459 41.8905 165.681C41.8408 165.805 41.8656 165.929 41.9154 166.052C41.9901 166.374 42.0648 166.67 42.1394 166.992C42.1892 167.165 42.2141 167.338 42.2141 167.511C42.2141 167.635 42.1892 167.758 42.1643 167.857C42.0648 168.253 41.8905 168.624 41.8408 169.02C41.791 169.415 41.8656 169.885 42.2141 170.108C42.3634 170.206 42.5376 170.256 42.687 170.355C42.9856 170.553 43.135 170.924 43.1599 171.294C43.1848 171.665 43.1599 172.012 43.1848 172.382C43.2594 173.223 43.8568 174.039 44.703 174.138C44.8772 174.163 45.0763 174.138 45.2505 174.089C45.4496 174.014 45.6239 173.866 45.7981 173.718C46.2461 173.322 46.6941 172.902 47.1421 172.506C47.4656 172.234 47.7643 171.937 48.0132 171.591C48.1376 171.418 48.2123 171.22 48.3865 171.097C48.5856 170.924 48.8843 170.849 49.0834 170.652C49.2327 170.503 49.3323 170.33 49.4319 170.132C49.7305 169.366 50.079 168.599 50.1785 167.783Z" fill="#8DA87B"/>
<path d="M47.7395 161.948C47.5155 161.799 47.2915 161.651 47.167 161.428C47.3413 161.428 47.4657 161.552 47.5902 161.676C47.8888 161.948 48.2622 162.145 48.6355 162.244C48.6604 162.244 48.7102 162.269 48.735 162.244C48.7599 162.244 48.7848 162.22 48.7848 162.195C48.9839 161.898 48.8097 161.478 48.6106 161.181C48.4115 160.884 48.1377 160.563 48.1377 160.217C48.3866 160.316 48.4613 160.637 48.5608 160.909C48.6604 161.181 48.8346 161.453 49.0586 161.651C49.1333 161.725 49.2328 161.799 49.3324 161.824C49.5315 161.849 49.7057 161.651 49.7306 161.453C49.7555 161.255 49.6559 161.057 49.5813 160.884C49.3324 160.316 49.1582 159.648 49.3822 159.079C49.5066 159.598 49.631 160.093 49.7555 160.612C49.7804 160.711 49.8302 160.835 49.9297 160.835C50.0542 160.835 50.079 160.662 50.079 160.563C50.079 160.068 50.1288 159.549 50.2035 159.054C50.2284 158.906 50.2533 158.758 50.3777 158.684C50.4026 158.684 50.4026 158.659 50.4275 158.659C50.4773 158.659 50.4773 158.733 50.4773 158.807C50.3777 159.302 50.2782 159.796 50.2284 160.291C50.2284 160.39 50.2035 160.513 50.303 160.588C50.3777 160.662 50.527 160.637 50.6266 160.538C50.7013 160.464 50.751 160.34 50.7759 160.241C50.9253 159.772 51.2239 159.302 51.6968 159.129C51.7964 159.079 51.9706 159.104 51.9955 159.203C51.9955 159.252 51.9706 159.302 51.9457 159.351C51.8462 159.5 51.6968 159.598 51.5724 159.722C51.199 160.093 50.9253 160.538 50.6515 160.958C50.6017 161.057 50.527 161.181 50.6017 161.28C50.6515 161.329 50.7262 161.329 50.8008 161.354C51.199 161.379 51.6222 161.404 51.9457 161.651C51.7466 161.824 51.4479 161.7 51.2239 161.626C50.9253 161.527 50.6266 161.527 50.3279 161.577C50.2284 161.601 50.1288 161.626 50.1039 161.725C50.079 161.799 50.1537 161.873 50.2284 161.923C50.5519 162.145 50.9999 162.22 51.199 162.566C50.5768 162.64 49.9546 162.244 49.3075 162.343C49.2577 162.343 49.2079 162.368 49.1582 162.417C49.0835 162.492 49.1333 162.615 49.2079 162.665C49.2826 162.739 49.3822 162.739 49.4817 162.788C49.6559 162.862 49.8302 162.986 49.9297 163.159C49.6808 163.233 49.407 163.184 49.183 163.085C48.9839 162.986 48.8097 162.838 48.6106 162.838C48.511 162.838 48.3866 162.887 48.287 162.838C48.0879 162.788 48.1626 162.541 48.1128 162.417C48.0382 162.17 47.8888 162.046 47.7395 161.948Z" fill="#85D375"/>
<path d="M43.2345 161.082C43.1599 161.057 43.0603 160.983 43.0852 160.909C43.1101 160.86 43.1599 160.86 43.2096 160.86C43.7821 160.86 44.3794 160.835 44.9519 160.761C45.0514 160.736 45.1759 160.736 45.2754 160.686C45.375 160.637 45.4496 160.538 45.4248 160.414C45.3999 160.217 45.1261 160.142 44.927 160.142C44.0061 160.142 43.0354 160.34 42.1892 159.969C42.1145 159.945 42.015 159.895 41.9652 159.821C41.9154 159.747 41.8905 159.648 41.9403 159.574C41.9901 159.5 42.0896 159.5 42.1643 159.5C42.4381 159.5 42.687 159.598 42.9608 159.648C43.583 159.821 44.255 159.895 44.927 159.821C45.0265 159.821 45.151 159.796 45.2256 159.722C45.3252 159.623 45.3003 159.475 45.2256 159.351C45.151 159.252 45.0265 159.178 44.9021 159.129C44.3047 158.931 43.6327 159.104 43.0354 158.881C42.9359 158.832 42.8114 158.758 42.8114 158.659C43.6576 158.634 44.5287 159.054 45.3501 158.807C45.2256 158.387 44.7528 158.189 44.3296 158.041C43.9065 157.892 43.4336 157.67 43.3341 157.249C43.3092 157.175 43.3341 157.076 43.3839 157.052C43.4087 157.027 43.4585 157.052 43.4834 157.052C43.7821 157.101 44.031 157.299 44.2799 157.497C44.5536 157.719 44.8274 157.917 45.1012 158.14C45.2505 158.263 45.4247 158.362 45.599 158.288C45.7483 158.214 45.7981 158.041 45.823 157.892C45.8976 157.299 45.7483 156.631 46.1216 156.137C46.1465 156.087 46.1963 156.062 46.2461 156.062C46.3208 156.062 46.3705 156.112 46.3954 156.186C46.4203 156.26 46.3954 156.334 46.3705 156.384C46.2212 156.903 46.1216 157.447 46.0967 157.966C46.0967 158.016 46.0968 158.09 46.1216 158.14C46.1714 158.214 46.271 158.238 46.3705 158.238C46.4701 158.214 46.5448 158.164 46.6194 158.14C47.0425 157.892 47.4905 157.744 47.9634 157.67C48.0381 157.67 48.1625 157.67 48.1874 157.744C48.2123 157.818 48.1128 157.917 48.0381 157.942C47.391 158.288 46.6941 158.56 45.9972 158.708C45.8727 158.733 45.6985 158.782 45.6985 158.931C45.6736 159.03 45.7732 159.129 45.8479 159.153C45.9474 159.178 46.047 159.178 46.1465 159.178C46.495 159.153 46.8185 159.129 47.167 159.104C47.0425 159.302 46.8185 159.376 46.5945 159.401C46.3705 159.425 46.1465 159.45 45.9723 159.598C45.7981 159.747 45.7483 160.044 45.9474 160.167C46.047 160.241 46.1963 160.217 46.3208 160.241C46.5199 160.266 46.3456 160.414 46.271 160.464C46.1963 160.513 46.1216 160.489 46.047 160.563C45.9972 160.637 46.047 160.736 45.9972 160.785C45.8727 161.008 45.6488 160.909 45.4248 160.934C44.6781 161.033 43.9812 161.28 43.2345 161.082Z" fill="#73BA65"/>
<path opacity="0.47" d="M39.8495 163.209C39.9241 163.505 40.1979 163.678 40.4966 163.753C40.7952 163.802 41.0939 163.777 41.3926 163.728C42.7615 163.505 44.205 163.357 45.549 163.753C46.221 163.95 46.8681 164.321 47.565 164.445C47.7641 164.494 48.013 164.47 48.0877 164.297C48.1375 164.124 47.9881 163.975 47.8139 163.876C46.8184 163.283 45.549 163.431 44.5037 162.937C44.0557 162.714 43.6326 162.393 43.1348 162.343C42.7864 162.318 42.4379 162.442 42.0895 162.541C41.741 162.615 41.3677 162.665 41.069 162.467C40.7704 162.269 40.5961 162.096 40.2726 162.318C40.0237 162.492 39.7499 162.862 39.8495 163.209Z" fill="white"/>
<path d="M40.5965 155.914H31.0641V169.316H40.5965V155.914Z" fill="#FBC02D"/>
<path d="M42.538 155.914H33.0055V169.316H42.538V155.914Z" fill="#C49000"/>
<path d="M40.5966 158.584H35.2703V162.912H40.5966V158.584Z" fill="white"/>
<path d="M49.6559 180.666H34.3492L33.1297 165.014H55.5546L52.767 178.02C52.4683 179.504 51.0746 180.666 49.6559 180.666Z" fill="#434343"/>
<path d="M28.5006 180.666H40.6712C42.0899 180.666 43.3095 179.504 43.409 178.02L44.2801 165.014H22.577L25.3646 178.02C25.713 179.504 27.1068 180.666 28.5006 180.666Z" fill="#1C1C1C"/>
<path d="M22.5769 166.646H56.0524C56.5004 166.646 56.8738 166.275 56.8738 165.83V163.53C56.8738 163.085 56.5004 162.714 56.0524 162.714H22.5769C22.1289 162.714 21.7556 163.085 21.7556 163.53V165.83C21.7556 166.299 22.1289 166.646 22.5769 166.646Z" fill="#1C1C1C"/>
<path d="M22.5769 166.646H45.0018C45.4498 166.646 45.8231 166.275 45.8231 165.83V163.53C45.8231 163.085 45.4498 162.714 45.0018 162.714H22.5769C22.1289 162.714 21.7556 163.085 21.7556 163.53V165.83C21.7556 166.299 22.1289 166.646 22.5769 166.646Z" fill="#434343"/>
<path d="M41.0693 178.688C41.5422 178.688 41.8906 178.342 41.9155 177.921L42.5377 168.475C42.5626 168.006 42.1893 167.585 41.6915 167.585H41.4177C40.9697 167.585 40.5964 167.931 40.5715 168.377L40.1982 177.822C40.2231 178.292 40.5964 178.688 41.0693 178.688Z" fill="#434343"/>
<path d="M37.6844 178.688C38.1573 178.688 38.5306 178.317 38.5555 177.872L38.6799 168.426C38.6799 167.956 38.3066 167.585 37.8337 167.585H37.5599C37.0871 167.585 36.7137 167.956 36.7137 168.426L36.8631 177.872C36.8631 178.317 37.2364 178.688 37.6844 178.688Z" fill="#434343"/>
<path d="M34.2994 178.688C34.7972 178.688 35.1705 178.292 35.1457 177.822L34.7474 168.377C34.7226 167.931 34.3492 167.585 33.9012 167.585H33.6275C33.1297 167.585 32.7563 168.006 32.7812 168.475L33.4532 177.921C33.4781 178.342 33.8515 178.688 34.2994 178.688Z" fill="#434343"/>
<path d="M51.0748 178.688C51.4481 178.688 51.7717 178.416 51.8214 178.045L53.2152 168.426C53.2899 167.981 52.9414 167.585 52.4685 167.585C52.0952 167.585 51.7717 167.857 51.7219 168.228L50.3281 177.847C50.2534 178.267 50.6019 178.688 51.0748 178.688Z" fill="#1C1C1C"/>
<path d="M48.0382 178.688C48.4115 178.688 48.735 178.416 48.7848 178.045L50.1786 168.426C50.2533 167.981 49.9048 167.585 49.4319 167.585C49.0586 167.585 48.735 167.857 48.6853 168.228L47.2915 177.847C47.2168 178.267 47.5653 178.688 48.0382 178.688Z" fill="#1C1C1C"/>
<path d="M45.0018 178.688C45.3752 178.688 45.6987 178.416 45.7485 178.045L47.1423 168.426C47.2169 167.981 46.8685 167.585 46.3956 167.585C46.0223 167.585 45.6987 167.857 45.649 168.228L44.2552 177.847C44.2054 178.267 44.5538 178.688 45.0018 178.688Z" fill="#1C1C1C"/>
<path d="M30.8899 178.688C31.3876 178.688 31.7859 178.267 31.7361 177.773L30.8152 168.327C30.7654 167.907 30.417 167.585 29.9939 167.585H29.7201C29.2223 167.585 28.8241 168.03 28.8987 168.525L30.0685 177.971C30.1183 178.366 30.4916 178.688 30.8899 178.688Z" fill="#434343"/>
<path d="M27.5049 178.688C28.0275 178.688 28.4009 178.243 28.3262 177.723L26.8826 168.278C26.8329 167.882 26.4595 167.56 26.0613 167.56H25.8124C25.2897 167.56 24.8915 168.03 24.9911 168.55L26.6835 177.995C26.7582 178.391 27.1066 178.688 27.5049 178.688Z" fill="#434343"/>
<path d="M49.8303 165.36L46.1219 174.113C45.4001 175.795 43.4339 177.179 41.7415 177.179" stroke="#FBC02D" stroke-width="6.5664" stroke-miterlimit="10" stroke-linecap="round" stroke-linejoin="round"/>
<path d="M41.7414 177.18H24.4685C22.7761 177.18 21.9548 175.82 22.6765 174.113L23.6472 171.838" stroke="#FBC02D" stroke-width="6.5664" stroke-miterlimit="10" stroke-linecap="round" stroke-linejoin="round"/>
</svg>
